<?xml version="1.0" encoding="UTF-8" standalone="no"?>
<!-- Created with Inkscape (http://www.inkscape.org/) -->

<svg
   xmlns:dc="http://purl.org/dc/elements/1.1/"
   xmlns:cc="http://creativecommons.org/ns#"
   xmlns:rdf="http://www.w3.org/1999/02/22-rdf-syntax-ns#"
   xmlns:svg="http://www.w3.org/2000/svg"
   xmlns="http://www.w3.org/2000/svg"
   xmlns:sodipodi="http://sodipodi.sourceforge.net/DTD/sodipodi-0.dtd"
   xmlns:inkscape="http://www.inkscape.org/namespaces/inkscape"
   width="406.18146"
   height="90"
   viewBox="0 0 406.18147 89.999999"
   id="svg11187"
   version="1.1"
   inkscape:version="0.91 r13725"
   sodipodi:docname="ce-blanco1.svg">
  <defs
     id="defs11189">
    <inkscape:path-effect
       effect="spiro"
       id="path-effect12659"
       is_visible="true" />
    <inkscape:path-effect
       effect="spiro"
       id="path-effect12653"
       is_visible="true" />
    <clipPath
       clipPathUnits="userSpaceOnUse"
       id="clipPath4357">
      <path
         d="m 0,1050 800,0 L 800,0 0,0 0,1050 Z"
         id="path4359"
         inkscape:connector-curvature="0" />
    </clipPath>
    <clipPath
       clipPathUnits="userSpaceOnUse"
       id="clipPath4407">
      <path
         d="m 0,1050 800,0 L 800,0 0,0 0,1050 Z"
         id="path4409"
         inkscape:connector-curvature="0" />
    </clipPath>
  </defs>
  <sodipodi:namedview
     id="base"
     pagecolor="#ffffff"
     bordercolor="#666666"
     borderopacity="1.0"
     inkscape:pageopacity="0.0"
     inkscape:pageshadow="2"
     inkscape:zoom="2.6901514"
     inkscape:cx="130.94526"
     inkscape:cy="69.347094"
     inkscape:document-units="px"
     inkscape:current-layer="layer1"
     showgrid="true"
     inkscape:window-width="1920"
     inkscape:window-height="1018"
     inkscape:window-x="-8"
     inkscape:window-y="-8"
     inkscape:window-maximized="1"
     fit-margin-left="5"
     fit-margin-right="5"
     fit-margin-top="5"
     fit-margin-bottom="5"
     units="px">
    <inkscape:grid
       type="xygrid"
       id="grid12655"
       originx="-105.45097"
       originy="-515" />
  </sodipodi:namedview>
  <metadata
     id="metadata11192">
    <rdf:RDF>
      <cc:Work
         rdf:about="">
        <dc:format>image/svg+xml</dc:format>
        <dc:type
           rdf:resource="http://purl.org/dc/dcmitype/StillImage" />
        <dc:title />
      </cc:Work>
    </rdf:RDF>
  </metadata>
  <g
     inkscape:label="Capa 1"
     inkscape:groupmode="layer"
     id="layer1"
     transform="translate(-105.45097,-447.3622)">
    <g
       transform="matrix(1.1111111,0,0,-1.1111111,-498.71969,835.01408)"
       id="g4353"
       style="fill:#ffffff">
      <g
         id="g4355"
         clip-path="url(#clipPath4357)"
         style="fill:#ffffff">
        <g
           id="g4361"
           transform="translate(553.0586,323.5312)"
           style="fill:#ffffff">
          <path
             d="m 0,0 0,-12.476 3.132,0 c 2.032,0 3.589,0.571 4.665,1.711 1.076,1.143 1.619,2.651 1.619,4.523 0,1.933 -0.547,3.459 -1.637,4.573 C 6.691,-0.555 5.119,0 3.079,0 L 0,0 Z m -4.805,3.611 8.506,0 c 3.285,0 5.881,-0.916 7.793,-2.758 1.907,-1.835 2.862,-4.209 2.862,-7.126 0,-3.055 -0.967,-5.452 -2.905,-7.194 -1.94,-1.744 -4.704,-2.621 -8.291,-2.621 l -7.965,0 0,19.699 z"
             style="fill:#ffffff;fill-opacity:1;fill-rule:nonzero;stroke:none"
             id="path4363"
             inkscape:connector-curvature="0" />
        </g>
        <path
           d="m 575.919,307.446 -4.806,0 0,19.696 4.806,0 0,-19.696 z"
           style="fill:#ffffff;fill-opacity:1;fill-rule:nonzero;stroke:none"
           id="path4365"
           inkscape:connector-curvature="0" />
        <g
           id="g4367"
           transform="translate(585.3574,323.5312)"
           style="fill:#ffffff">
          <path
             d="m 0,0 0,-4.566 2.237,0 c 1.998,0 2.995,0.763 2.995,2.282 0,0.858 -0.266,1.451 -0.804,1.784 C 3.898,-0.166 2.987,0 1.699,0 L 0,0 Z m -4.8,3.611 8.595,0 c 1.954,0 3.503,-0.581 4.65,-1.732 1.155,-1.158 1.732,-2.526 1.732,-4.104 0,-1.634 -0.57,-3.038 -1.704,-4.204 C 7.331,-7.594 5.782,-8.176 3.821,-8.176 l -3.821,0 0,-7.912 -4.8,0 0,19.699 z"
             style="fill:#ffffff;fill-opacity:1;fill-rule:nonzero;stroke:none"
             id="path4369"
             inkscape:connector-curvature="0" />
        </g>
        <g
           id="g4371"
           transform="translate(613.6025,311.0557)"
           style="fill:#ffffff">
          <path
             d="m 0,0 0,-3.609 -14.702,0 0,19.696 4.803,0 L -9.899,0 0,0 Z"
             style="fill:#ffffff;fill-opacity:1;fill-rule:nonzero;stroke:none"
             id="path4373"
             inkscape:connector-curvature="0" />
        </g>
        <g
           id="g4375"
           transform="translate(626.5215,311.2793)"
           style="fill:#ffffff">
          <path
             d="M 0,0 C 1.82,0 3.29,0.555 4.403,1.658 5.52,2.764 6.074,4.212 6.074,6.01 6.074,7.814 5.52,9.264 4.403,10.363 3.29,11.463 1.82,12.019 0,12.019 c -1.832,0 -3.305,-0.556 -4.426,-1.656 C -5.543,9.264 -6.104,7.814 -6.104,6.01 -6.104,4.212 -5.543,2.764 -4.426,1.658 -3.305,0.555 -1.832,0 0,0 m 0,16.115 c 3.283,0 5.944,-1.01 7.979,-3.039 2.033,-2.024 3.05,-4.379 3.05,-7.066 0,-2.727 -1.031,-5.092 -3.093,-7.094 -2.061,-2 -4.707,-3.004 -7.936,-3.004 -3.27,0 -5.924,0.998 -7.979,2.99 -2.052,1.992 -3.077,4.359 -3.077,7.108 0,2.697 1.017,5.054 3.06,7.076 2.034,2.019 4.701,3.029 7.996,3.029"
             style="fill:#ffffff;fill-opacity:1;fill-rule:nonzero;stroke:none"
             id="path4377"
             inkscape:connector-curvature="0" />
        </g>
        <g
           id="g4379"
           transform="translate(650.7969,319.8398)"
           style="fill:#ffffff">
          <path
             d="m 0,0 6.199,7.301 4.172,0 0,-19.695 -4.804,0 0,12.296 -5.21,-6.177 -0.72,0 -5.206,6.177 0,-12.296 -4.806,0 0,19.695 4.173,0 L 0,0 Z"
             style="fill:#ffffff;fill-opacity:1;fill-rule:nonzero;stroke:none"
             id="path4381"
             inkscape:connector-curvature="0" />
        </g>
        <g
           id="g4383"
           transform="translate(677.125,314.7773)"
           style="fill:#ffffff">
          <path
             d="M 0,0 -3.128,7.654 -5.957,0 0,0 Z m -0.406,12.365 8.566,-19.696 -5.166,0 -1.59,3.891 -8.635,0 -1.44,-3.891 -5.093,0 7.788,19.696 5.57,0 z"
             style="fill:#ffffff;fill-opacity:1;fill-rule:nonzero;stroke:none"
             id="path4385"
             inkscape:connector-curvature="0" />
        </g>
        <g
           id="g4387"
           transform="translate(692.5566,323.5312)"
           style="fill:#ffffff">
          <path
             d="m 0,0 0,-12.476 3.129,0 c 2.036,0 3.59,0.571 4.668,1.711 1.074,1.143 1.613,2.651 1.613,4.523 0,1.933 -0.544,3.459 -1.638,4.573 C 6.68,-0.555 5.116,0 3.076,0 L 0,0 Z m -4.803,3.611 8.5,0 c 3.283,0 5.879,-0.916 7.791,-2.758 1.908,-1.835 2.867,-4.209 2.867,-7.126 0,-3.055 -0.971,-5.452 -2.91,-7.194 -1.935,-1.744 -4.702,-2.621 -8.285,-2.621 l -7.963,0 0,19.699 z"
             style="fill:#ffffff;fill-opacity:1;fill-rule:nonzero;stroke:none"
             id="path4389"
             inkscape:connector-curvature="0" />
        </g>
        <g
           id="g4391"
           transform="translate(720.4014,311.2793)"
           style="fill:#ffffff">
          <path
             d="m 0,0 c 1.821,0 3.291,0.555 4.404,1.658 1.112,1.106 1.669,2.554 1.669,4.352 0,1.804 -0.557,3.254 -1.669,4.353 -1.113,1.1 -2.583,1.656 -4.404,1.656 -1.833,0 -3.306,-0.556 -4.429,-1.656 C -5.542,9.264 -6.103,7.814 -6.103,6.01 -6.103,4.212 -5.542,2.764 -4.429,1.658 -3.306,0.555 -1.833,0 0,0 m 0,16.115 c 3.282,0 5.943,-1.01 7.974,-3.039 2.039,-2.024 3.054,-4.379 3.054,-7.066 0,-2.727 -1.029,-5.092 -3.093,-7.094 -2.057,-2 -4.705,-3.004 -7.935,-3.004 -3.266,0 -5.931,0.998 -7.981,2.99 -2.051,1.992 -3.079,4.359 -3.079,7.108 0,2.697 1.022,5.054 3.063,7.076 2.037,2.019 4.703,3.029 7.997,3.029"
             style="fill:#ffffff;fill-opacity:1;fill-rule:nonzero;stroke:none"
             id="path4393"
             inkscape:connector-curvature="0" />
        </g>
        <g
           id="g4395"
           transform="translate(747.5898,325.874)"
           style="fill:#ffffff">
          <path
             d="m 0,0 0,-3.847 c -2.559,1.172 -4.6,1.76 -6.114,1.76 -0.865,0 -1.553,-0.149 -2.066,-0.446 -0.511,-0.296 -0.767,-0.687 -0.767,-1.179 0,-0.374 0.187,-0.73 0.554,-1.068 0.37,-0.334 1.265,-0.772 2.691,-1.311 1.431,-0.539 2.568,-1.033 3.423,-1.494 0.857,-0.462 1.595,-1.11 2.215,-1.947 0.626,-0.835 0.933,-1.894 0.933,-3.172 0,-1.825 -0.68,-3.277 -2.034,-4.356 -1.359,-1.079 -3.147,-1.623 -5.364,-1.623 -2.397,0 -4.712,0.635 -6.959,1.905 l 0,4.242 c 1.29,-0.883 2.431,-1.527 3.427,-1.932 0.989,-0.403 2.046,-0.603 3.159,-0.603 1.886,0 2.83,0.603 2.83,1.816 0,0.413 -0.19,0.802 -0.571,1.172 -0.373,0.364 -1.283,0.811 -2.722,1.336 -1.44,0.526 -2.585,1.013 -3.424,1.467 -0.843,0.453 -1.568,1.094 -2.182,1.93 -0.611,0.839 -0.914,1.91 -0.914,3.216 0,1.693 0.664,3.056 2,4.1 1.335,1.035 3.119,1.555 5.356,1.555 C -4.471,1.521 -2.293,1.017 0,0"
             style="fill:#ffffff;fill-opacity:1;fill-rule:nonzero;stroke:none"
             id="path4397"
             inkscape:connector-curvature="0" />
        </g>
      </g>
    </g>
    <path
       style="font-variant:normal;font-weight:300;font-stretch:normal;font-size:14.72900009px;font-family:'HelveticaNeueLT Std Lt';-inkscape-font-specification:HelveticaNeueLTStd-Lt;writing-mode:lr-tb;fill:#ffffff;fill-opacity:1;fill-rule:nonzero;stroke:none"
       d="M 132.97266 48.162109 L 131.68555 50.851562 L 132.75781 50.851562 L 134.7207 48.162109 L 132.97266 48.162109 z M 163.04102 49.023438 L 163.04102 52.505859 C 162.68142 52.31887 162.3397 52.182006 162.01367 52.095703 C 161.68764 52.004606 161.31255 51.958984 160.89062 51.958984 C 160.42555 51.958984 159.97537 52.05431 159.53906 52.246094 C 159.10755 52.437878 158.72838 52.715689 158.40234 53.080078 C 158.07152 53.454057 157.80791 53.907253 157.61133 54.439453 C 157.41954 54.971653 157.32422 55.578933 157.32422 56.259766 C 157.32422 57.56869 157.60505 58.59171 158.16602 59.330078 C 158.73178 60.068446 159.49225 60.4375 160.45117 60.4375 C 160.94502 60.4375 161.40425 60.345192 161.82617 60.158203 C 162.2481 59.971214 162.65265 59.708669 163.04102 59.373047 L 163.04102 60.214844 L 164.39258 60.214844 L 164.39258 49.023438 L 163.04102 49.023438 z M 201.22461 49.023438 L 201.22461 60.214844 L 202.57617 60.214844 L 202.57617 49.023438 L 201.22461 49.023438 z M 223.08594 49.3125 C 222.29962 49.3125 221.58282 49.43321 220.93555 49.677734 C 220.29307 49.922259 219.74455 50.277112 219.28906 50.742188 C 218.81919 51.221647 218.46026 51.810643 218.21094 52.505859 C 217.96162 53.201076 217.83594 53.988888 217.83594 54.871094 C 217.83594 55.801245 217.9657 56.619413 218.22461 57.324219 C 218.48352 58.02423 218.84245 58.601154 219.30273 59.056641 C 219.7726 59.521716 220.32414 59.865386 220.95703 60.085938 C 221.59471 60.301694 222.30335 60.408203 223.08008 60.408203 C 223.49241 60.408203 223.86857 60.375718 224.20898 60.308594 C 224.5542 60.246264 224.87159 60.169222 225.16406 60.078125 C 225.50927 59.967849 225.78904 59.862405 226 59.761719 C 226.21576 59.661032 226.45505 59.55257 226.71875 59.4375 L 226.71875 57.769531 L 226.61719 57.769531 C 226.09458 58.239402 225.53487 58.591237 224.93555 58.826172 C 224.33622 59.061107 223.69344 59.179688 223.00781 59.179688 C 222.50917 59.179687 222.03468 59.095545 221.58398 58.927734 C 221.13809 58.755129 220.74773 58.491519 220.41211 58.136719 C 220.09087 57.796302 219.82531 57.354289 219.61914 56.8125 C 219.41777 56.270711 219.31836 55.623845 219.31836 54.871094 C 219.31836 54.151904 219.4096 53.51924 219.5918 52.972656 C 219.77879 52.421278 220.03636 51.965063 220.36719 51.605469 C 220.7076 51.236285 221.09388 50.965574 221.52539 50.792969 C 221.9617 50.615569 222.4504 50.527344 222.99219 50.527344 C 223.65384 50.527344 224.27532 50.639888 224.85547 50.865234 C 225.43561 51.09058 226.02159 51.449516 226.61133 51.943359 L 226.71875 51.943359 L 226.71875 50.253906 C 226.01874 49.903901 225.38004 49.658575 224.80469 49.519531 C 224.23413 49.380488 223.66129 49.3125 223.08594 49.3125 z M 116.56445 49.433594 L 116.56445 50.835938 L 118.08984 50.835938 L 118.08984 49.433594 L 116.56445 49.433594 z M 190.62109 49.433594 L 190.62109 50.835938 L 192.14648 50.835938 L 192.14648 49.433594 L 190.62109 49.433594 z M 81 49.505859 L 81 50.599609 L 82.402344 50.599609 L 82.402344 59.121094 L 81 59.121094 L 81 60.214844 L 84.689453 60.214844 L 85.228516 60.214844 L 86.041016 60.214844 L 86.041016 54.216797 C 86.4102 53.933916 86.796473 53.701726 87.199219 53.519531 C 87.601965 53.337337 87.988238 53.246094 88.357422 53.246094 C 88.717017 53.246094 89.009029 53.295798 89.234375 53.396484 C 89.459721 53.492376 89.632088 53.642377 89.751953 53.84375 C 89.867023 54.025945 89.947083 54.279436 89.990234 54.605469 C 90.033386 54.926707 90.054688 55.271441 90.054688 55.640625 L 90.054688 60.214844 L 91.40625 60.214844 L 91.40625 55 C 91.40625 54.017108 91.178143 53.264799 90.722656 52.742188 C 90.26717 52.219576 89.606103 51.958984 88.738281 51.958984 C 88.263616 51.958984 87.800301 52.057328 87.349609 52.253906 C 86.898917 52.450485 86.46294 52.724213 86.041016 53.074219 L 86.041016 52.181641 L 84.689453 52.181641 L 84.689453 59.121094 L 83.826172 59.121094 L 83.826172 50.599609 L 85.228516 50.599609 L 85.228516 49.505859 L 81 49.505859 z M 146.20508 49.505859 L 146.20508 50.599609 L 147.60742 50.599609 L 147.60742 59.121094 L 146.20508 59.121094 L 146.20508 60.214844 L 149.89453 60.214844 L 150.43359 60.214844 L 151.24609 60.214844 L 151.24609 54.216797 C 151.61528 53.933916 152.00155 53.701726 152.4043 53.519531 C 152.80704 53.337337 153.19332 53.246094 153.5625 53.246094 C 153.92209 53.246094 154.21411 53.295798 154.43945 53.396484 C 154.6648 53.492376 154.83717 53.642377 154.95703 53.84375 C 155.0721 54.025945 155.15216 54.279436 155.19531 54.605469 C 155.23846 54.926707 155.25977 55.271441 155.25977 55.640625 L 155.25977 60.214844 L 156.61133 60.214844 L 156.61133 55 C 156.61133 54.017108 156.38322 53.264799 155.92773 52.742188 C 155.47225 52.219576 154.81118 51.958984 153.94336 51.958984 C 153.46869 51.958984 153.00538 52.057328 152.55469 52.253906 C 152.104 52.450485 151.66802 52.724213 151.24609 53.074219 L 151.24609 52.181641 L 149.89453 52.181641 L 149.89453 59.121094 L 149.03125 59.121094 L 149.03125 50.599609 L 150.43359 50.599609 L 150.43359 49.505859 L 146.20508 49.505859 z M 208.12695 49.505859 L 208.12695 55.914062 C 208.12695 56.724349 208.2111 57.406717 208.37891 57.962891 C 208.55151 58.519064 208.83234 58.995515 209.2207 59.388672 C 209.56112 59.733883 209.97988 59.994475 210.47852 60.171875 C 210.97715 60.349275 211.56118 60.4375 212.23242 60.4375 C 212.88928 60.4375 213.46514 60.353358 213.95898 60.185547 C 214.45283 60.017736 214.88472 59.753061 215.25391 59.388672 C 215.64227 59.005104 215.92008 58.52457 216.08789 57.949219 C 216.2605 57.369073 216.34766 56.690787 216.34766 55.914062 L 216.34766 49.505859 L 214.92383 49.505859 L 214.92383 56.021484 C 214.92383 56.544095 214.88229 56.98309 214.80078 57.337891 C 214.72407 57.687896 214.59129 58.000146 214.4043 58.273438 C 214.18854 58.589881 213.90256 58.826153 213.54297 58.984375 C 213.18337 59.137802 212.74544 59.214844 212.23242 59.214844 C 211.72419 59.214844 211.28822 59.136737 210.92383 58.978516 C 210.56423 58.820294 210.27932 58.585086 210.06836 58.273438 C 209.88137 58.000146 209.74752 57.694997 209.66602 57.359375 C 209.5893 57.023753 209.55078 56.566474 209.55078 55.986328 L 209.55078 49.505859 L 208.12695 49.505859 z M 181.57617 49.873047 L 181.57617 52.181641 L 180.66211 52.181641 L 180.66211 53.318359 L 181.57617 53.318359 L 181.57617 57.589844 C 181.57617 58.563147 181.78812 59.269835 182.21484 59.710938 C 182.64156 60.15204 183.26606 60.373047 184.08594 60.373047 C 184.32087 60.373047 184.5875 60.351745 184.88477 60.308594 C 185.18683 60.265442 185.46464 60.209702 185.71875 60.142578 L 185.71875 58.927734 L 185.64648 58.927734 C 185.541 58.970886 185.36864 59.026626 185.12891 59.09375 C 184.88918 59.15608 184.65805 59.185547 184.4375 59.185547 C 184.05873 59.185547 183.77683 59.142943 183.58984 59.056641 C 183.40765 58.965543 183.26368 58.824596 183.1582 58.632812 C 183.04313 58.426645 182.97621 58.205638 182.95703 57.970703 C 182.93785 57.730973 182.92773 57.40044 182.92773 56.978516 L 182.92773 53.318359 L 185.71875 53.318359 L 185.71875 52.181641 L 182.92773 52.181641 L 182.92773 49.873047 L 181.57617 49.873047 z M 95.671875 51.958984 C 95.230772 51.958984 94.785741 52.05431 94.339844 52.246094 C 93.893946 52.433083 93.516727 52.696693 93.205078 53.037109 C 92.869456 53.401499 92.602828 53.836411 92.40625 54.339844 C 92.214466 54.838482 92.119141 55.432625 92.119141 56.123047 C 92.119141 57.384026 92.398017 58.361424 92.958984 59.056641 C 93.524747 59.747063 94.287174 60.091797 95.246094 60.091797 C 95.821445 60.091797 96.294879 60.01369 96.664062 59.855469 C 97.038041 59.692452 97.428397 59.447126 97.835938 59.121094 L 97.835938 59.855469 C 97.835938 60.181501 97.800435 60.476532 97.728516 60.740234 C 97.656597 61.003937 97.536951 61.229026 97.369141 61.416016 C 97.20133 61.612594 96.966122 61.766677 96.664062 61.876953 C 96.362003 61.987229 95.979813 62.041016 95.519531 62.041016 C 95.040072 62.041016 94.561491 61.97711 94.082031 61.847656 C 93.602572 61.722997 93.251801 61.617553 93.03125 61.53125 L 92.958984 61.53125 L 92.958984 62.912109 C 93.352141 63.022385 93.751551 63.106527 94.154297 63.164062 C 94.561838 63.226392 94.977578 63.257812 95.404297 63.257812 C 96.689249 63.257813 97.641263 62.938463 98.259766 62.300781 C 98.878269 61.6631 99.1875 60.662447 99.1875 59.300781 L 99.1875 52.181641 L 97.921875 52.181641 L 97.835938 52.527344 C 97.485932 52.33556 97.152381 52.19266 96.835938 52.101562 C 96.524289 52.005671 96.136951 51.958984 95.671875 51.958984 z M 104.27148 51.958984 C 103.1016 51.958984 102.15864 52.345257 101.43945 53.117188 C 100.72506 53.889118 100.36719 54.930421 100.36719 56.244141 C 100.36719 57.572244 100.74032 58.598282 101.48828 59.322266 C 102.23624 60.041455 103.27648 60.402344 104.60938 60.402344 C 105.13199 60.402344 105.6308 60.336485 106.10547 60.207031 C 106.58013 60.077577 107.04647 59.918346 107.50195 59.726562 L 107.50195 58.251953 L 107.42969 58.251953 C 107.19475 58.462915 106.79836 58.677886 106.24219 58.898438 C 105.69081 59.114194 105.14229 59.222656 104.5957 59.222656 C 104.18337 59.222656 103.8042 59.163898 103.45898 59.048828 C 103.11857 58.933758 102.82354 58.761391 102.57422 58.53125 C 102.31531 58.296315 102.11152 57.997202 101.96289 57.632812 C 101.81426 57.263629 101.74023 56.831734 101.74023 56.337891 L 107.66016 56.337891 L 107.66016 55.605469 C 107.66016 54.440382 107.36513 53.54109 106.77539 52.908203 C 106.19045 52.275316 105.35506 51.958984 104.27148 51.958984 z M 112.70117 51.958984 C 112.22651 51.958984 111.76515 52.057328 111.31445 52.253906 C 110.86376 52.450485 110.42778 52.724213 110.00586 53.074219 L 110.00586 52.181641 L 108.65234 52.181641 L 108.65234 60.214844 L 110.00586 60.214844 L 110.00586 54.216797 C 110.37504 53.933916 110.75936 53.701726 111.16211 53.519531 C 111.56486 53.337337 111.95113 53.246094 112.32031 53.246094 C 112.67991 53.246094 112.97387 53.295798 113.19922 53.396484 C 113.42456 53.492376 113.59693 53.642377 113.7168 53.84375 C 113.83187 54.025945 113.90997 54.279436 113.95312 54.605469 C 113.99628 54.926707 114.01758 55.271441 114.01758 55.640625 L 114.01758 60.214844 L 115.37109 60.214844 L 115.37109 55 C 115.37109 54.017108 115.14299 53.264799 114.6875 52.742188 C 114.23201 52.219576 113.56899 51.958984 112.70117 51.958984 z M 122.77148 51.958984 C 121.6016 51.958984 120.65669 52.345257 119.9375 53.117188 C 119.22311 53.889118 118.86719 54.930421 118.86719 56.244141 C 118.86719 57.572244 119.24032 58.598282 119.98828 59.322266 C 120.73624 60.041455 121.77648 60.402344 123.10938 60.402344 C 123.63199 60.402344 124.1308 60.336485 124.60547 60.207031 C 125.08013 60.077577 125.54451 59.918346 126 59.726562 L 126 58.251953 L 125.92969 58.251953 C 125.69475 58.462915 125.29836 58.677886 124.74219 58.898438 C 124.19081 59.114194 123.64229 59.222656 123.0957 59.222656 C 122.68337 59.222656 122.3042 59.163898 121.95898 59.048828 C 121.61857 58.933758 121.32354 58.761391 121.07422 58.53125 C 120.81531 58.296315 120.61152 57.997202 120.46289 57.632812 C 120.31426 57.263629 120.24023 56.831734 120.24023 56.337891 L 126.1582 56.337891 L 126.1582 55.605469 C 126.1582 54.440382 125.86513 53.54109 125.27539 52.908203 C 124.69045 52.275316 123.85506 51.958984 122.77148 51.958984 z M 137.41211 51.986328 C 136.92786 51.986328 136.43614 52.030885 135.9375 52.117188 C 135.43886 52.20349 135.05862 52.281597 134.79492 52.353516 L 134.79492 53.728516 L 134.86523 53.728516 C 135.33031 53.551116 135.78244 53.415316 136.21875 53.324219 C 136.65506 53.228327 137.0495 53.181641 137.4043 53.181641 C 137.69677 53.181641 137.9776 53.199924 138.24609 53.238281 C 138.51459 53.276638 138.74376 53.350662 138.93555 53.460938 C 139.13692 53.576008 139.291 53.734174 139.39648 53.935547 C 139.50676 54.13692 139.5625 54.392365 139.5625 54.699219 L 139.5625 54.90625 C 138.77619 54.944607 138.03914 55.003365 137.35352 55.080078 C 136.66789 55.156792 136.08085 55.301821 135.5918 55.517578 C 135.10754 55.733335 134.73441 56.031383 134.4707 56.410156 C 134.21179 56.784135 134.08203 57.275852 134.08203 57.884766 C 134.08203 58.627928 134.33446 59.23929 134.83789 59.71875 C 135.34132 60.19821 135.95375 60.4375 136.67773 60.4375 C 137.07089 60.4375 137.41456 60.398979 137.70703 60.322266 C 137.9995 60.250347 138.25903 60.159104 138.48438 60.048828 C 138.67616 59.962525 138.87089 59.848916 139.07227 59.705078 C 139.27843 59.556446 139.44264 59.440883 139.5625 59.359375 L 139.5625 60.214844 L 140.90625 60.214844 L 140.90625 54.763672 C 140.90625 54.245855 140.82814 53.810943 140.66992 53.460938 C 140.5117 53.110932 140.28058 52.82602 139.97852 52.605469 C 139.67166 52.380123 139.30864 52.221957 138.88672 52.130859 C 138.46959 52.034967 137.97787 51.986328 137.41211 51.986328 z M 177.12891 51.986328 C 176.61588 51.986328 176.1515 52.055204 175.73438 52.189453 C 175.32204 52.318907 174.98139 52.495357 174.71289 52.720703 C 174.4348 52.950844 174.22498 53.211436 174.08594 53.503906 C 173.95169 53.796377 173.88477 54.108626 173.88477 54.439453 C 173.88477 54.966859 174.03175 55.412954 174.32422 55.777344 C 174.62148 56.136938 175.12137 56.410667 175.82617 56.597656 C 176.08029 56.664781 176.36111 56.727621 176.66797 56.785156 C 176.97962 56.842691 177.23204 56.892396 177.42383 56.935547 C 177.94164 57.050617 178.29046 57.188546 178.47266 57.351562 C 178.65485 57.514579 178.74609 57.755822 178.74609 58.072266 C 178.74609 58.484601 178.57976 58.786732 178.24414 58.978516 C 177.90852 59.170299 177.44219 59.265625 176.84766 59.265625 C 176.3682 59.265625 175.86831 59.171364 175.3457 58.984375 C 174.82309 58.792591 174.34859 58.536082 173.92188 58.214844 L 173.84961 58.214844 L 173.84961 59.732422 C 174.18523 59.900233 174.59991 60.057334 175.09375 60.201172 C 175.59239 60.340215 176.13789 60.408203 176.73242 60.408203 C 177.78244 60.408203 178.61072 60.174949 179.21484 59.705078 C 179.82376 59.235208 180.12695 58.632011 180.12695 57.898438 C 180.12695 57.313497 179.9576 56.845035 179.61719 56.490234 C 179.27677 56.140229 178.79215 55.891885 178.16406 55.748047 C 177.95789 55.700101 177.69837 55.647379 177.38672 55.589844 C 177.07986 55.532309 176.80205 55.475504 176.55273 55.417969 C 176.10204 55.312488 175.77754 55.175623 175.57617 55.007812 C 175.37 54.840002 175.26562 54.590593 175.26562 54.259766 C 175.26562 53.885787 175.43693 53.604958 175.77734 53.417969 C 176.11776 53.226185 176.5335 53.130859 177.02734 53.130859 C 177.50201 53.130859 177.98663 53.219084 178.48047 53.396484 C 178.97431 53.56909 179.39502 53.782996 179.74023 54.037109 L 179.81055 54.037109 L 179.81055 52.591797 C 179.48451 52.423986 179.07587 52.283039 178.58203 52.167969 C 178.09298 52.048104 177.60837 51.986328 177.12891 51.986328 z M 196.24023 51.986328 C 195.75598 51.986328 195.26426 52.030885 194.76562 52.117188 C 194.26699 52.20349 193.8848 52.281597 193.62109 52.353516 L 193.62109 53.728516 L 193.69336 53.728516 C 194.15844 53.551116 194.60861 53.415316 195.04492 53.324219 C 195.48123 53.228327 195.87762 53.181641 196.23242 53.181641 C 196.52489 53.181641 196.80572 53.199924 197.07422 53.238281 C 197.34272 53.276638 197.57189 53.350662 197.76367 53.460938 C 197.96504 53.576008 198.11913 53.734174 198.22461 53.935547 C 198.33489 54.13692 198.39062 54.392365 198.39062 54.699219 L 198.39062 54.90625 C 197.60431 54.944607 196.86727 55.003365 196.18164 55.080078 C 195.49601 55.156792 194.90897 55.301821 194.41992 55.517578 C 193.93567 55.733335 193.56253 56.031383 193.29883 56.410156 C 193.03992 56.784135 192.91016 57.275852 192.91016 57.884766 C 192.91016 58.627928 193.16063 59.23929 193.66406 59.71875 C 194.1675 60.19821 194.78188 60.4375 195.50586 60.4375 C 195.89902 60.4375 196.24269 60.398979 196.53516 60.322266 C 196.82763 60.250347 197.0852 60.159104 197.31055 60.048828 C 197.50233 59.962525 197.69902 59.848916 197.90039 59.705078 C 198.10656 59.556446 198.27076 59.440883 198.39062 59.359375 L 198.39062 60.214844 L 199.73438 60.214844 L 199.73438 54.763672 C 199.73438 54.245855 199.65627 53.810943 199.49805 53.460938 C 199.33983 53.110932 199.1087 52.82602 198.80664 52.605469 C 198.49979 52.380123 198.13482 52.221957 197.71289 52.130859 C 197.29576 52.034967 196.806 51.986328 196.24023 51.986328 z M 116.65039 52.181641 L 116.65039 60.214844 L 118.00195 60.214844 L 118.00195 52.181641 L 116.65039 52.181641 z M 127.15234 52.181641 L 127.15234 60.214844 L 128.50391 60.214844 L 128.50391 54.511719 C 128.8635 54.219248 129.23859 53.981023 129.62695 53.798828 C 130.01532 53.611839 130.41685 53.519531 130.83398 53.519531 C 131.09289 53.519531 131.31692 53.530715 131.50391 53.554688 C 131.62645 53.566941 131.75441 53.595142 131.88086 53.619141 L 131.88086 60.214844 L 133.23242 60.214844 L 133.23242 52.181641 L 131.88086 52.181641 L 131.88086 52.228516 C 131.82196 52.220871 131.7335 52.206952 131.69141 52.203125 C 131.58593 52.188741 131.41462 52.181641 131.17969 52.181641 C 130.75297 52.181641 130.33421 52.272883 129.92188 52.455078 C 129.51433 52.632478 129.0409 52.935674 128.50391 53.367188 L 128.50391 52.181641 L 127.15234 52.181641 z M 166.34766 52.181641 L 166.34766 57.396484 C 166.34766 58.39376 166.58286 59.150152 167.05273 59.667969 C 167.5226 60.180991 168.17959 60.4375 169.02344 60.4375 C 169.52687 60.4375 169.98717 60.342174 170.4043 60.150391 C 170.82143 59.958607 171.2574 59.68186 171.71289 59.322266 L 171.71289 60.214844 L 173.06445 60.214844 L 173.06445 52.181641 L 171.71289 52.181641 L 171.71289 58.179688 C 171.3533 58.462569 170.96596 58.694758 170.54883 58.876953 C 170.13649 59.059148 169.7543 59.150391 169.4043 59.150391 C 169.01114 59.150391 168.71203 59.101751 168.50586 59.005859 C 168.29969 58.909967 168.13141 58.757837 168.00195 58.546875 C 167.87729 58.340707 167.79617 58.092363 167.75781 57.804688 C 167.71946 57.512217 167.69922 57.1634 167.69922 56.755859 L 167.69922 52.181641 L 166.34766 52.181641 z M 185.98047 52.181641 L 185.98047 60.214844 L 187.33203 60.214844 L 187.33203 54.511719 C 187.69163 54.219248 188.06672 53.981023 188.45508 53.798828 C 188.84344 53.611839 189.24498 53.519531 189.66211 53.519531 C 189.92102 53.519531 190.14504 53.530715 190.33203 53.554688 C 190.45395 53.56688 190.58123 53.595322 190.70703 53.619141 L 190.70703 60.214844 L 192.06055 60.214844 L 192.06055 52.181641 L 190.70703 52.181641 L 190.70703 52.228516 C 190.64814 52.220871 190.55967 52.206952 190.51758 52.203125 C 190.4121 52.188741 190.24275 52.181641 190.00781 52.181641 C 189.58109 52.181641 189.16234 52.272883 188.75 52.455078 C 188.34246 52.632478 187.86903 52.935674 187.33203 53.367188 L 187.33203 52.181641 L 185.98047 52.181641 z M 104.20117 53.074219 C 104.92036 53.074219 105.45468 53.267888 105.80469 53.65625 C 106.15949 54.044612 106.33896 54.593134 106.34375 55.302734 L 101.74023 55.302734 C 101.79777 54.669848 102.04008 54.13961 102.4668 53.712891 C 102.89831 53.286172 103.47719 53.074219 104.20117 53.074219 z M 122.69922 53.074219 C 123.41841 53.074219 123.95273 53.267888 124.30273 53.65625 C 124.65753 54.044612 124.83896 54.593134 124.84375 55.302734 L 120.24023 55.302734 C 120.29777 54.669848 120.54008 54.13961 120.9668 53.712891 C 121.39831 53.286172 121.97523 53.074219 122.69922 53.074219 z M 95.908203 53.173828 C 96.215057 53.173828 96.521271 53.209331 96.828125 53.28125 C 97.139774 53.348374 97.476343 53.463937 97.835938 53.626953 L 97.835938 58.007812 C 97.50511 58.261926 97.140139 58.465714 96.742188 58.619141 C 96.349031 58.767773 95.955657 58.841797 95.5625 58.841797 C 94.828927 58.841797 94.304725 58.607654 93.988281 58.142578 C 93.671838 57.677502 93.513672 56.995134 93.513672 56.09375 C 93.513672 55.14442 93.727578 54.420513 94.154297 53.921875 C 94.581016 53.423237 95.165041 53.173828 95.908203 53.173828 z M 161.12109 53.195312 C 161.46151 53.195312 161.77482 53.226733 162.0625 53.289062 C 162.35018 53.351392 162.67663 53.463937 163.04102 53.626953 L 163.04102 58.236328 C 162.7006 58.504826 162.33456 58.725832 161.94141 58.898438 C 161.54825 59.066248 161.15896 59.150391 160.77539 59.150391 C 160.0562 59.150391 159.53306 58.904 159.20703 58.410156 C 158.881 57.911518 158.71875 57.184593 158.71875 56.230469 C 158.71875 55.26196 158.92964 54.513734 159.35156 53.986328 C 159.77349 53.458923 160.36355 53.195312 161.12109 53.195312 z M 139.5625 56 L 139.5625 58.236328 C 139.22688 58.495236 138.86191 58.719261 138.46875 58.90625 C 138.07559 59.088445 137.64263 59.179688 137.16797 59.179688 C 136.59741 59.179688 136.17262 59.064125 135.89453 58.833984 C 135.61644 58.599049 135.47656 58.251297 135.47656 57.791016 C 135.47656 57.383475 135.59621 57.064125 135.83594 56.833984 C 136.07567 56.599049 136.39093 56.426682 136.7793 56.316406 C 137.10533 56.225309 137.54539 56.155368 138.10156 56.107422 C 138.66253 56.059476 139.15016 56.023973 139.5625 56 z M 198.39062 56 L 198.39062 58.236328 C 198.055 58.495236 197.69003 58.719261 197.29688 58.90625 C 196.90372 59.088445 196.46881 59.179688 195.99414 59.179688 C 195.42358 59.179688 195.00074 59.064125 194.72266 58.833984 C 194.44457 58.599049 194.30469 58.251297 194.30469 57.791016 C 194.30469 57.383475 194.42433 57.064125 194.66406 56.833984 C 194.90379 56.599049 195.21906 56.426682 195.60742 56.316406 C 195.93345 56.225309 196.37351 56.155368 196.92969 56.107422 C 197.49066 56.059476 197.97829 56.023973 198.39062 56 z "
       transform="translate(105.45097,447.3622)"
       id="text4399" />
    <g
       transform="matrix(1.1111111,0,0,-1.1111111,-276.28333,752.44114)"
       id="g4403"
       style="fill:#ffffff">
      <g
         id="g4405"
         clip-path="url(#clipPath4407)"
         style="fill:#ffffff">
        <path
           d="m 592.089,261.682 2.315,0 0,-22.447 -2.315,0 0,22.447 z"
           style="fill:#ffffff;fill-opacity:1;fill-rule:nonzero;stroke:none"
           id="path4411"
           inkscape:connector-curvature="0" />
        <g
           id="g4413"
           transform="translate(605.0615,245.916)"
           style="fill:#ffffff">
          <path
             d="m 0,0 c -2.939,0 -4.84,-0.801 -4.84,-2.668 0,-1.754 1.308,-2.41 3.061,-2.41 2.672,0 4.036,1.933 4.095,4.187 L 2.316,0 0,0 Z m -6.709,5.434 c 1.428,1.454 3.504,2.136 5.523,2.136 4.096,0 5.819,-1.959 5.819,-5.877 l 0,-5.964 c 0,-0.807 0.09,-1.697 0.205,-2.411 l -2.223,0 c -0.148,0.623 -0.148,1.487 -0.148,2.084 l -0.061,0 c -0.92,-1.427 -2.465,-2.437 -4.573,-2.437 -2.821,0 -5.165,1.424 -5.165,4.127 0,4.601 5.345,4.871 8.758,4.871 l 0.89,0 0,0.414 c 0,2.018 -1.276,3.057 -3.443,3.057 -1.484,0 -3.029,-0.504 -4.125,-1.514 l -1.457,1.514"
             style="fill:#ffffff;fill-opacity:1;fill-rule:nonzero;stroke:none"
             id="path4415"
             inkscape:connector-curvature="0" />
        </g>
        <g
           id="g4417"
           transform="translate(632.0771,249.6602)"
           style="fill:#ffffff">
          <path
             d="m 0,0 c -0.979,1.186 -2.107,1.689 -3.5,1.689 -3.119,0 -4.693,-2.316 -4.693,-5.164 0,-2.853 1.871,-5.168 4.693,-5.168 1.514,0 2.672,0.538 3.533,1.724 l 1.721,-1.634 c -1.334,-1.543 -3.236,-2.226 -5.254,-2.226 -4.305,0 -7.186,3.027 -7.186,7.304 0,4.215 2.909,7.301 7.186,7.301 2.047,0 3.949,-0.682 5.344,-2.196 L 0,0"
             style="fill:#ffffff;fill-opacity:1;fill-rule:nonzero;stroke:none"
             id="path4419"
             inkscape:connector-curvature="0" />
        </g>
        <path
           d="m 636.384,261.682 2.314,0 0,-22.447 -2.314,0 0,22.447 z"
           style="fill:#ffffff;fill-opacity:1;fill-rule:nonzero;stroke:none"
           id="path4421"
           inkscape:connector-curvature="0" />
        <g
           id="g4423"
           transform="translate(649.3545,245.916)"
           style="fill:#ffffff">
          <path
             d="m 0,0 c -2.938,0 -4.838,-0.801 -4.838,-2.668 0,-1.754 1.303,-2.41 3.055,-2.41 2.674,0 4.039,1.933 4.099,4.187 L 2.316,0 0,0 Z m -6.707,5.434 c 1.426,1.454 3.5,2.136 5.518,2.136 4.095,0 5.82,-1.959 5.82,-5.877 l 0,-5.964 c 0,-0.807 0.09,-1.697 0.207,-2.411 l -2.225,0 c -0.15,0.623 -0.15,1.487 -0.15,2.084 l -0.061,0 c -0.916,-1.427 -2.463,-2.437 -4.57,-2.437 -2.818,0 -5.162,1.424 -5.162,4.127 0,4.601 5.342,4.871 8.756,4.871 l 0.89,0 0,0.414 c 0,2.018 -1.277,3.057 -3.445,3.057 -1.484,0 -3.027,-0.504 -4.127,-1.514 l -1.451,1.514"
             style="fill:#ffffff;fill-opacity:1;fill-rule:nonzero;stroke:none"
             id="path4425"
             inkscape:connector-curvature="0" />
        </g>
        <g
           id="g4427"
           transform="translate(658.3799,242.8887)"
           style="fill:#ffffff">
          <path
             d="m 0,0 c 0.92,-1.127 1.93,-1.871 3.561,-1.871 1.455,0 3.058,0.627 3.058,2.141 0,1.48 -1.484,1.867 -2.969,2.197 -2.64,0.594 -4.9,1.159 -4.9,4.037 0,2.701 2.613,4.094 5.197,4.094 1.957,0 3.774,-0.743 4.723,-2.524 L 6.738,6.798 C 6.143,7.777 5.164,8.461 3.799,8.461 2.523,8.461 1.066,7.838 1.066,6.531 1.066,5.374 2.73,4.867 4.57,4.514 7.033,4.037 9.113,3.15 9.113,0.359 c 0,-3.15 -2.793,-4.367 -5.552,-4.367 -2.346,0 -4.036,0.623 -5.403,2.58 L 0,0"
             style="fill:#ffffff;fill-opacity:1;fill-rule:nonzero;stroke:none"
             id="path4429"
             inkscape:connector-curvature="0" />
        </g>
        <g
           id="g4431"
           transform="translate(680.9424,247.4297)"
           style="fill:#ffffff">
          <path
             d="M 0,0 C -0.086,2.347 -1.633,3.92 -4.187,3.92 -6.742,3.92 -8.432,2.347 -8.729,0 L 0,0 Z m 1.988,-5.668 c -1.634,-2.107 -3.592,-2.881 -6.175,-2.881 -4.364,0 -7.038,3.268 -7.038,7.305 0,4.305 3.032,7.301 7.125,7.301 3.924,0 6.594,-2.67 6.594,-7.278 l 0,-0.736 -11.223,0 c 0.178,-2.404 2.018,-4.455 4.542,-4.455 1.988,0 3.328,0.717 4.421,2.107 l 1.754,-1.363"
             style="fill:#ffffff;fill-opacity:1;fill-rule:nonzero;stroke:none"
             id="path4433"
             inkscape:connector-curvature="0" />
        </g>
        <g
           id="g4435"
           transform="translate(603.4775,223.7881)"
           style="fill:#ffffff">
          <path
             d="M 0,0 C -0.09,2.347 -1.631,3.917 -4.186,3.917 -6.737,3.917 -8.431,2.347 -8.727,0 L 0,0 Z m 1.989,-5.669 c -1.632,-2.113 -3.593,-2.88 -6.175,-2.88 -4.363,0 -7.034,3.261 -7.034,7.302 0,4.307 3.028,7.304 7.124,7.304 3.918,0 6.589,-2.673 6.589,-7.278 l 0,-0.739 -11.22,0 c 0.178,-2.404 2.018,-4.452 4.541,-4.452 1.993,0 3.325,0.711 4.424,2.107 l 1.751,-1.364"
             style="fill:#ffffff;fill-opacity:1;fill-rule:nonzero;stroke:none"
             id="path4437"
             inkscape:connector-curvature="0" />
        </g>
        <g
           id="g4439"
           transform="translate(610.458,236.6133)"
           style="fill:#ffffff">
          <path
             d="M 0,0 C 0.947,0 1.689,-0.771 1.689,-1.693 1.689,-2.67 0.977,-3.387 0,-3.387 c -0.98,0 -1.693,0.717 -1.693,1.694 C -1.693,-0.771 -0.953,0 0,0 m 1.154,-24.135 c 0,-1.429 -0.681,-4.011 -4.128,-4.011 -0.532,0 -1.096,0.06 -1.6,0.3 l 0.266,2.015 c 0.384,-0.116 0.744,-0.177 1.13,-0.177 1.75,0 2.02,1.334 2.02,2.937 l 0,15.943 2.312,0 0,-17.007"
             style="fill:#ffffff;fill-opacity:1;fill-rule:nonzero;stroke:none"
             id="path4441"
             inkscape:connector-curvature="0" />
        </g>
        <g
           id="g4443"
           transform="translate(626.1611,223.7881)"
           style="fill:#ffffff">
          <path
             d="M 0,0 C -0.09,2.347 -1.633,3.917 -4.187,3.917 -6.74,3.917 -8.432,2.347 -8.729,0 L 0,0 Z m 1.99,-5.669 c -1.635,-2.113 -3.594,-2.88 -6.177,-2.88 -4.366,0 -7.036,3.261 -7.036,7.302 0,4.307 3.028,7.304 7.123,7.304 3.922,0 6.594,-2.673 6.594,-7.278 l 0,-0.739 -11.223,0 c 0.176,-2.404 2.02,-4.452 4.542,-4.452 1.99,0 3.328,0.711 4.423,2.107 L 1.99,-5.669"
             style="fill:#ffffff;fill-opacity:1;fill-rule:nonzero;stroke:none"
             id="path4445"
             inkscape:connector-curvature="0" />
        </g>
        <g
           id="g4447"
           transform="translate(641.8369,226.0146)"
           style="fill:#ffffff">
          <path
             d="m 0,0 c -0.98,1.187 -2.109,1.69 -3.504,1.69 -3.117,0 -4.689,-2.314 -4.689,-5.164 0,-2.851 1.871,-5.165 4.689,-5.165 1.514,0 2.672,0.535 3.533,1.722 L 1.75,-8.548 c -1.34,-1.545 -3.236,-2.227 -5.254,-2.227 -4.307,0 -7.185,3.026 -7.185,7.301 0,4.217 2.91,7.304 7.185,7.304 2.047,0 3.951,-0.684 5.344,-2.196 L 0,0"
             style="fill:#ffffff;fill-opacity:1;fill-rule:nonzero;stroke:none"
             id="path4449"
             inkscape:connector-curvature="0" />
        </g>
        <g
           id="g4451"
           transform="translate(658.1631,218.8896)"
           style="fill:#ffffff">
          <path
             d="m 0,0 c 0,-1.28 0.117,-2.377 0.117,-3.297 l -2.199,0 c 0,0.743 -0.057,1.513 -0.057,2.286 l -0.06,0 C -2.826,-2.377 -4.545,-3.65 -6.83,-3.65 c -3.65,0 -5.281,2.311 -5.281,5.667 l 0,8.579 2.312,0 0,-8.342 c 0,-2.314 1.008,-3.768 3.176,-3.768 3,0 4.305,2.167 4.305,5.345 l 0,6.765 2.318,0 L 0,0"
             style="fill:#ffffff;fill-opacity:1;fill-rule:nonzero;stroke:none"
             id="path4453"
             inkscape:connector-curvature="0" />
        </g>
        <g
           id="g4455"
           transform="translate(669.9756,227.5273)"
           style="fill:#ffffff">
          <path
             d="m 0,0 -4.094,0 0,-6.95 c 0,-1.778 0.03,-3.201 2.074,-3.201 0.688,0 1.428,0.15 2.051,0.473 l 0.088,-2.107 c -0.799,-0.36 -1.838,-0.503 -2.701,-0.503 -3.295,0 -3.828,1.777 -3.828,4.657 l 0,7.631 -3.028,0 0,1.958 3.028,0 0,3.948 2.316,0 0,-3.948 L 0,1.958 0,0"
             style="fill:#ffffff;fill-opacity:1;fill-rule:nonzero;stroke:none"
             id="path4457"
             inkscape:connector-curvature="0" />
        </g>
        <path
           d="m 672.649,229.485 2.314,0 0,-13.893 -2.314,0 0,13.893 z m 1.155,7.128 c 0.951,0 1.693,-0.771 1.693,-1.693 0,-0.977 -0.709,-1.693 -1.693,-1.693 -0.977,0 -1.69,0.716 -1.69,1.693 0,0.922 0.746,1.693 1.69,1.693"
           style="fill:#ffffff;fill-opacity:1;fill-rule:nonzero;stroke:none"
           id="path4459"
           inkscape:connector-curvature="0" />
        <g
           id="g4461"
           transform="translate(685.624,215.5928)"
           style="fill:#ffffff">
          <path
             d="m 0,0 -2.555,0 -5.672,13.893 2.702,0 4.338,-10.896 0.056,0 4.127,10.896 2.494,0 L 0,0 Z"
             style="fill:#ffffff;fill-opacity:1;fill-rule:nonzero;stroke:none"
             id="path4463"
             inkscape:connector-curvature="0" />
        </g>
        <g
           id="g4465"
           transform="translate(699.7822,222.2734)"
           style="fill:#ffffff">
          <path
             d="m 0,0 c -2.939,0 -4.838,-0.806 -4.838,-2.673 0,-1.751 1.307,-2.403 3.061,-2.403 2.668,0 4.035,1.926 4.097,4.186 L 2.32,0 0,0 Z m -6.707,5.432 c 1.424,1.456 3.504,2.139 5.52,2.139 4.101,0 5.818,-1.96 5.818,-5.878 l 0,-5.967 c 0,-0.802 0.09,-1.693 0.211,-2.407 l -2.229,0 c -0.146,0.623 -0.146,1.484 -0.146,2.077 l -0.063,0 c -0.92,-1.423 -2.466,-2.43 -4.568,-2.43 -2.824,0 -5.168,1.423 -5.168,4.124 0,4.603 5.346,4.871 8.76,4.871 l 0.892,0 0,0.416 c 0,2.018 -1.279,3.055 -3.447,3.055 -1.486,0 -3.027,-0.504 -4.127,-1.514 l -1.453,1.514"
             style="fill:#ffffff;fill-opacity:1;fill-rule:nonzero;stroke:none"
             id="path4467"
             inkscape:connector-curvature="0" />
        </g>
      </g>
    </g>
    <path
       style="fill:#ffffff;fill-rule:evenodd;stroke:#ffffff;stroke-width:0.44444445;stroke-linecap:butt;stroke-linejoin:miter;stroke-miterlimit:4;stroke-dasharray:none;stroke-opacity:1;fill-opacity:1"
       d="m 356.92391,452.3622 0,80"
       id="path12657"
       inkscape:path-effect="#path-effect12659"
       inkscape:original-d="m 356.92391,452.3622 0,80"
       inkscape:connector-curvature="0" />
  </g>
</svg>
