<?xml version="1.0" encoding="utf-8"?>
<!-- Generator: Adobe Illustrator 15.0.0, SVG Export Plug-In . SVG Version: 6.00 Build 0)  -->
<!DOCTYPE svg PUBLIC "-//W3C//DTD SVG 1.1//EN" "http://www.w3.org/Graphics/SVG/1.1/DTD/svg11.dtd">
<svg version="1.1"
	 id="svg11187" xmlns:dc="http://purl.org/dc/elements/1.1/" xmlns:cc="http://creativecommons.org/ns#" xmlns:rdf="http://www.w3.org/1999/02/22-rdf-syntax-ns#" xmlns:svg="http://www.w3.org/2000/svg" xmlns:inkscape="http://www.inkscape.org/namespaces/inkscape" xmlns:sodipodi="http://sodipodi.sourceforge.net/DTD/sodipodi-0.dtd" sodipodi:docname="ce-blanco1.svg" inkscape:version="0.91 r13725"
	 xmlns="http://www.w3.org/2000/svg" xmlns:xlink="http://www.w3.org/1999/xlink" x="0px" y="0px" width="406.182px" height="90px"
	 viewBox="0 0 406.182 90" enable-background="new 0 0 406.182 90" xml:space="preserve">
<defs>
	
	<inkscape:path-effect  effect="spiro" id="path-effect12659" is_visible="true"></inkscape:path-effect>
	<inkscape:path-effect  effect="spiro" id="path-effect12653" is_visible="true"></inkscape:path-effect>
</defs>
<sodipodi:namedview  units="px" inkscape:window-maximized="1" id="base" fit-margin-top="5" bordercolor="#666666" showgrid="true" pagecolor="#ffffff" fit-margin-left="5" inkscape:cy="69.347094" inkscape:cx="130.94526" inkscape:zoom="2.6901514" borderopacity="1.0" fit-margin-bottom="5" fit-margin-right="5" inkscape:window-y="-8" inkscape:window-x="-8" inkscape:window-height="1018" inkscape:window-width="1920" inkscape:current-layer="layer1" inkscape:document-units="px" inkscape:pageshadow="2" inkscape:pageopacity="0.0">
	<inkscape:grid  type="xygrid" id="grid12655" originy="-515" originx="-105.45097"></inkscape:grid>
</sodipodi:namedview>
<g id="layer1" transform="translate(-105.45097,-447.3622)" inkscape:label="Capa 1" inkscape:groupmode="layer">
	<g id="g4353" transform="matrix(1.1111111,0,0,-1.1111111,-498.71969,835.01408)">
		<g>
			<g id="g4355">
				<g id="g4361" transform="translate(553.0586,323.5312)">
					<path id="path4363" inkscape:connector-curvature="0" fill="#231F20" d="M0,0v-12.476h3.132c2.032,0,3.589,0.571,4.665,1.711
						c1.076,1.143,1.619,2.651,1.619,4.523c0,1.933-0.548,3.459-1.637,4.573C6.691-0.555,5.119,0,3.079,0H0z M-4.805,3.611h8.506
						c3.285,0,5.881-0.916,7.793-2.758c1.907-1.835,2.862-4.209,2.862-7.126c0-3.055-0.967-5.452-2.905-7.194
						c-1.94-1.744-4.704-2.621-8.291-2.621h-7.966V3.611z"/>
				</g>
				<path id="path4365" inkscape:connector-curvature="0" fill="#231F20" d="M575.919,307.446h-4.806v19.696h4.806V307.446z"/>
				<g id="g4367" transform="translate(585.3574,323.5312)">
					<path id="path4369" inkscape:connector-curvature="0" fill="#231F20" d="M0,0v-4.566h2.237c1.999,0,2.995,0.763,2.995,2.282
						c0,0.858-0.266,1.451-0.804,1.784C3.898-0.166,2.987,0,1.699,0H0z M-4.8,3.611h8.595c1.954,0,3.503-0.581,4.65-1.732
						C9.6,0.72,10.177-0.647,10.177-2.225c0-1.634-0.57-3.038-1.703-4.204C7.331-7.594,5.782-8.176,3.821-8.176H0v-7.912h-4.8V3.611
						z"/>
				</g>
				<g id="g4371" transform="translate(613.6025,311.0557)">
					<path id="path4373" inkscape:connector-curvature="0" fill="#231F20" d="M0,0v-3.61h-14.702v19.696h4.803V0H0z"/>
				</g>
				<g id="g4375" transform="translate(626.5215,311.2793)">
					<path id="path4377" inkscape:connector-curvature="0" fill="#231F20" d="M0,0C1.82,0,3.29,0.555,4.403,1.658
						C5.52,2.764,6.074,4.212,6.074,6.01c0,1.804-0.555,3.254-1.672,4.353C3.29,11.463,1.82,12.019,0,12.019
						c-1.833,0-3.306-0.556-4.426-1.656C-5.543,9.264-6.104,7.814-6.104,6.01c0-1.798,0.561-3.246,1.678-4.351
						C-3.305,0.555-1.832,0,0,0 M0,16.115c3.283,0,5.944-1.01,7.979-3.039c2.033-2.024,3.05-4.379,3.05-7.066
						c0-2.727-1.031-5.092-3.093-7.094C5.875-3.084,3.229-4.088,0-4.088c-3.27,0-5.925,0.998-7.98,2.99
						c-2.051,1.992-3.077,4.359-3.077,7.108c0,2.697,1.018,5.054,3.06,7.076C-5.962,15.105-3.295,16.115,0,16.115"/>
				</g>
				<g id="g4379" transform="translate(650.7969,319.8398)">
					<path id="path4381" inkscape:connector-curvature="0" fill="#231F20" d="M0,0l6.199,7.301h4.172v-19.695H5.567v12.295
						l-5.21-6.177h-0.72l-5.207,6.177v-12.295h-4.806V7.301h4.173L0,0z"/>
				</g>
				<g id="g4383" transform="translate(677.125,314.7773)">
					<path id="path4385" inkscape:connector-curvature="0" fill="#231F20" d="M0,0l-3.128,7.654L-5.957,0H0z M-0.406,12.365
						L8.16-7.331H2.994L1.404-3.44h-8.635l-1.44-3.891h-5.093l7.788,19.696H-0.406L-0.406,12.365z"/>
				</g>
				<g id="g4387" transform="translate(692.5566,323.5312)">
					<path id="path4389" inkscape:connector-curvature="0" fill="#231F20" d="M0,0v-12.476h3.129c2.036,0,3.59,0.571,4.668,1.711
						C8.871-9.623,9.41-8.114,9.41-6.242c0,1.933-0.544,3.459-1.637,4.573C6.68-0.555,5.116,0,3.076,0H0z M-4.803,3.611h8.5
						c3.284,0,5.879-0.916,7.792-2.758c1.908-1.835,2.867-4.209,2.867-7.126c0-3.055-0.971-5.452-2.91-7.194
						c-1.935-1.744-4.702-2.621-8.285-2.621h-7.963V3.611z"/>
				</g>
				<g id="g4391" transform="translate(720.4014,311.2793)">
					<path id="path4393" inkscape:connector-curvature="0" fill="#231F20" d="M0,0c1.821,0,3.292,0.555,4.404,1.658
						C5.516,2.764,6.073,4.212,6.073,6.01c0,1.804-0.557,3.254-1.669,4.353c-1.113,1.1-2.583,1.656-4.404,1.656
						c-1.833,0-3.306-0.556-4.429-1.656C-5.542,9.264-6.103,7.814-6.103,6.01c0-1.798,0.562-3.246,1.674-4.351
						C-3.306,0.555-1.833,0,0,0 M0,16.115c3.282,0,5.943-1.01,7.974-3.039c2.039-2.024,3.054-4.379,3.054-7.066
						c0-2.727-1.029-5.092-3.094-7.094C5.878-3.084,3.23-4.088,0-4.088c-3.266,0-5.931,0.998-7.98,2.99
						c-2.051,1.992-3.08,4.359-3.08,7.108c0,2.697,1.022,5.054,3.063,7.076C-5.96,15.105-3.294,16.115,0,16.115"/>
				</g>
				<g id="g4395" transform="translate(747.5898,325.874)">
					<path id="path4397" inkscape:connector-curvature="0" fill="#231F20" d="M0,0v-3.847c-2.559,1.172-4.6,1.76-6.115,1.76
						c-0.865,0-1.553-0.149-2.065-0.446C-8.691-2.829-8.947-3.22-8.947-3.712c0-0.374,0.187-0.729,0.554-1.068
						c0.37-0.334,1.265-0.772,2.691-1.311c1.431-0.539,2.568-1.033,3.423-1.494c0.857-0.462,1.594-1.11,2.215-1.947
						c0.626-0.835,0.933-1.894,0.933-3.172c0-1.825-0.679-3.277-2.034-4.356c-1.359-1.079-3.147-1.622-5.364-1.622
						c-2.397,0-4.712,0.635-6.959,1.905v4.242c1.29-0.883,2.431-1.527,3.427-1.932c0.99-0.403,2.046-0.603,3.16-0.603
						c1.885,0,2.83,0.603,2.83,1.816c0,0.413-0.191,0.802-0.571,1.172c-0.374,0.364-1.283,0.811-2.722,1.336
						c-1.441,0.526-2.585,1.013-3.424,1.467c-0.843,0.453-1.568,1.094-2.182,1.93c-0.611,0.839-0.913,1.91-0.913,3.216
						c0,1.693,0.664,3.056,2,4.1c1.335,1.035,3.119,1.555,5.356,1.555C-4.471,1.521-2.293,1.017,0,0"/>
				</g>
			</g>
		</g>
	</g>
	<path id="text4399" fill="#231F20" d="M238.423,495.524l-1.287,2.689h1.072l1.963-2.689H238.423z M268.492,496.386v3.482
		c-0.359-0.188-0.701-0.324-1.027-0.41c-0.326-0.091-0.701-0.137-1.123-0.137c-0.465,0-0.915,0.096-1.352,0.287
		c-0.432,0.191-0.811,0.47-1.137,0.834c-0.33,0.374-0.594,0.827-0.791,1.359c-0.191,0.532-0.287,1.14-0.287,1.82
		c0,1.309,0.281,2.332,0.842,3.07c0.566,0.738,1.326,1.107,2.285,1.107c0.494,0,0.953-0.092,1.375-0.279s0.827-0.449,1.215-0.785
		v0.842h1.352v-11.191H268.492z M306.675,496.386v11.191h1.352v-11.191H306.675z M328.537,496.675c-0.786,0-1.503,0.121-2.15,0.365
		c-0.643,0.244-1.19,0.6-1.646,1.064c-0.47,0.479-0.828,1.068-1.078,1.764c-0.249,0.695-0.375,1.482-0.375,2.365
		c0,0.93,0.13,1.748,0.389,2.453c0.259,0.7,0.618,1.277,1.078,1.732c0.47,0.465,1.021,0.809,1.654,1.029
		c0.638,0.216,1.347,0.322,2.123,0.322c0.413,0,0.789-0.032,1.129-0.1c0.346-0.063,0.663-0.14,0.955-0.23
		c0.346-0.11,0.625-0.216,0.836-0.316c0.216-0.101,0.455-0.209,0.719-0.324v-1.668h-0.102c-0.522,0.47-1.082,0.822-1.682,1.057
		c-0.599,0.234-1.242,0.354-1.928,0.354c-0.498,0-0.973-0.084-1.424-0.252c-0.445-0.173-0.836-0.437-1.172-0.791
		c-0.321-0.34-0.587-0.782-0.793-1.324c-0.201-0.542-0.301-1.188-0.301-1.941c0-0.719,0.092-1.352,0.273-1.898
		c0.188-0.551,0.445-1.008,0.775-1.367c0.341-0.369,0.727-0.64,1.158-0.813c0.437-0.178,0.926-0.266,1.467-0.266
		c0.662,0,1.283,0.112,1.863,0.338s1.166,0.584,1.756,1.078h0.107v-1.689c-0.699-0.35-1.339-0.596-1.914-0.734
		C329.685,496.743,329.112,496.675,328.537,496.675z M222.015,496.796v1.402h1.525v-1.402H222.015z M296.072,496.796v1.402h1.525
		v-1.402H296.072z M186.451,496.868v1.094h1.402v8.521h-1.402v1.094h3.689h0.539h0.813v-5.998c0.369-0.283,0.756-0.516,1.158-0.697
		c0.403-0.182,0.789-0.273,1.158-0.273c0.36,0,0.652,0.05,0.877,0.15c0.226,0.096,0.398,0.246,0.518,0.447
		c0.115,0.182,0.195,0.436,0.238,0.762c0.044,0.321,0.064,0.666,0.064,1.035v4.574h1.352v-5.215c0-0.982-0.228-1.735-0.684-2.258
		c-0.455-0.522-1.116-0.783-1.984-0.783c-0.475,0-0.938,0.099-1.389,0.295c-0.45,0.196-0.887,0.471-1.309,0.82v-0.893h-1.352v6.939
		h-0.863v-8.521h1.402v-1.094H186.451z M251.656,496.868v1.094h1.402v8.521h-1.402v1.094h3.689h0.539h0.813v-5.998
		c0.369-0.283,0.756-0.516,1.158-0.697c0.403-0.182,0.789-0.273,1.158-0.273c0.36,0,0.652,0.05,0.877,0.15
		c0.226,0.096,0.398,0.246,0.518,0.447c0.115,0.182,0.195,0.436,0.238,0.762c0.044,0.321,0.064,0.666,0.064,1.035v4.574h1.352
		v-5.215c0-0.982-0.228-1.735-0.684-2.258c-0.455-0.522-1.116-0.783-1.984-0.783c-0.475,0-0.938,0.099-1.389,0.295
		c-0.45,0.196-0.887,0.471-1.309,0.82v-0.893h-1.352v6.939h-0.863v-8.521h1.402v-1.094H251.656z M313.578,496.868v6.408
		c0,0.811,0.084,1.492,0.252,2.049c0.173,0.557,0.454,1.033,0.842,1.426c0.341,0.346,0.76,0.605,1.258,0.783
		c0.499,0.178,1.083,0.266,1.754,0.266c0.657,0,1.233-0.084,1.727-0.252c0.494-0.168,0.926-0.433,1.295-0.797
		c0.389-0.384,0.666-0.864,0.834-1.439c0.173-0.58,0.26-1.259,0.26-2.035v-6.408h-1.424v6.516c0,0.522-0.041,0.962-0.123,1.316
		c-0.076,0.35-0.209,0.662-0.396,0.936c-0.216,0.316-0.501,0.553-0.861,0.711c-0.359,0.153-0.797,0.23-1.311,0.23
		c-0.508,0-0.944-0.078-1.309-0.236c-0.359-0.158-0.645-0.394-0.855-0.705c-0.187-0.273-0.32-0.578-0.402-0.914
		c-0.076-0.336-0.115-0.793-0.115-1.373v-6.48H313.578z M287.027,497.235v2.309h-0.914v1.137h0.914v4.271
		c0,0.974,0.212,1.68,0.639,2.121s1.052,0.662,1.871,0.662c0.235,0,0.502-0.021,0.799-0.064c0.303-0.043,0.58-0.099,0.834-0.166
		v-1.215h-0.072c-0.105,0.043-0.277,0.099-0.518,0.166c-0.239,0.063-0.471,0.092-0.691,0.092c-0.379,0-0.66-0.043-0.848-0.129
		c-0.182-0.091-0.326-0.232-0.432-0.424c-0.115-0.206-0.182-0.428-0.201-0.662c-0.019-0.24-0.029-0.57-0.029-0.992v-3.66h2.791
		v-1.137h-2.791v-2.309H287.027z M201.123,499.321c-0.44,0-0.886,0.096-1.332,0.287c-0.445,0.188-0.823,0.451-1.135,0.791
		c-0.335,0.364-0.602,0.799-0.799,1.303c-0.191,0.498-0.287,1.093-0.287,1.783c0,1.261,0.279,2.238,0.84,2.934
		c0.566,0.69,1.328,1.035,2.287,1.035c0.575,0,1.049-0.078,1.418-0.236c0.374-0.163,0.765-0.408,1.172-0.734v0.734
		c0,0.326-0.035,0.621-0.107,0.885c-0.071,0.264-0.191,0.488-0.359,0.676c-0.168,0.196-0.402,0.351-0.705,0.461
		c-0.302,0.11-0.684,0.164-1.145,0.164c-0.479,0-0.958-0.064-1.438-0.193c-0.479-0.125-0.83-0.23-1.051-0.316h-0.072v1.381
		c0.394,0.11,0.793,0.194,1.195,0.252c0.408,0.063,0.823,0.094,1.25,0.094c1.285,0,2.237-0.319,2.855-0.957
		c0.619-0.638,0.928-1.639,0.928-3v-7.119h-1.266l-0.086,0.346c-0.35-0.191-0.684-0.335-1-0.426
		C201.975,499.368,201.588,499.321,201.123,499.321z M209.722,499.321c-1.17,0-2.112,0.387-2.832,1.158
		c-0.714,0.771-1.072,1.813-1.072,3.127c0,1.328,0.373,2.354,1.121,3.078c0.748,0.719,1.788,1.08,3.121,1.08
		c0.522,0,1.021-0.066,1.496-0.195s0.941-0.289,1.396-0.48v-1.475h-0.072c-0.234,0.211-0.631,0.426-1.188,0.646
		c-0.551,0.216-1.1,0.324-1.646,0.324c-0.412,0-0.791-0.059-1.137-0.174c-0.34-0.115-0.635-0.287-0.885-0.518
		c-0.259-0.234-0.462-0.534-0.611-0.898c-0.148-0.369-0.223-0.801-0.223-1.295h5.92v-0.732c0-1.165-0.295-2.064-0.885-2.697
		C211.641,499.638,210.806,499.321,209.722,499.321z M218.152,499.321c-0.475,0-0.936,0.099-1.387,0.295
		c-0.45,0.196-0.887,0.471-1.309,0.82v-0.893h-1.354v8.033h1.354v-5.998c0.369-0.283,0.754-0.516,1.156-0.697
		c0.403-0.182,0.789-0.273,1.158-0.273c0.36,0,0.654,0.05,0.879,0.15c0.226,0.096,0.398,0.246,0.518,0.447
		c0.115,0.182,0.193,0.436,0.236,0.762c0.044,0.321,0.064,0.666,0.064,1.035v4.574h1.354v-5.215c0-0.982-0.228-1.735-0.684-2.258
		C219.683,499.582,219.02,499.321,218.152,499.321z M228.222,499.321c-1.17,0-2.114,0.387-2.834,1.158
		c-0.714,0.771-1.07,1.813-1.07,3.127c0,1.328,0.373,2.354,1.121,3.078c0.748,0.719,1.788,1.08,3.121,1.08
		c0.522,0,1.021-0.066,1.496-0.195s0.939-0.289,1.395-0.48v-1.475h-0.07c-0.234,0.211-0.631,0.426-1.188,0.646
		c-0.551,0.216-1.1,0.324-1.646,0.324c-0.412,0-0.791-0.059-1.137-0.174c-0.34-0.115-0.635-0.287-0.885-0.518
		c-0.259-0.234-0.462-0.534-0.611-0.898c-0.148-0.369-0.223-0.801-0.223-1.295h5.918v-0.732c0-1.165-0.293-2.064-0.883-2.697
		C230.141,499.638,229.306,499.321,228.222,499.321z M242.863,499.349c-0.484,0-0.976,0.045-1.475,0.131
		c-0.498,0.086-0.879,0.164-1.143,0.236v1.375h0.07c0.466-0.178,0.918-0.313,1.354-0.404c0.437-0.096,0.831-0.143,1.186-0.143
		c0.293,0,0.573,0.019,0.842,0.057s0.498,0.112,0.689,0.223c0.202,0.115,0.355,0.273,0.461,0.475
		c0.11,0.201,0.166,0.457,0.166,0.764v0.207c-0.786,0.038-1.523,0.098-2.209,0.174s-1.272,0.222-1.762,0.438
		c-0.484,0.216-0.857,0.514-1.121,0.893c-0.259,0.374-0.389,0.865-0.389,1.475c0,0.743,0.253,1.354,0.756,1.834
		c0.504,0.479,1.116,0.719,1.84,0.719c0.394,0,0.737-0.039,1.029-0.115c0.293-0.072,0.553-0.163,0.777-0.273
		c0.192-0.086,0.387-0.2,0.588-0.344c0.206-0.148,0.371-0.264,0.49-0.346v0.855h1.344v-5.451c0-0.518-0.078-0.953-0.236-1.303
		s-0.389-0.635-0.691-0.855c-0.307-0.226-0.67-0.384-1.092-0.475C243.92,499.397,243.429,499.349,242.863,499.349z M282.58,499.349
		c-0.513,0-0.978,0.068-1.395,0.203c-0.412,0.129-0.753,0.306-1.021,0.531c-0.277,0.23-0.487,0.49-0.627,0.783
		c-0.134,0.293-0.201,0.604-0.201,0.936c0,0.527,0.147,0.974,0.439,1.338c0.298,0.359,0.798,0.633,1.502,0.82
		c0.255,0.067,0.535,0.13,0.842,0.188c0.312,0.058,0.564,0.107,0.756,0.15c0.519,0.115,0.867,0.253,1.049,0.416
		c0.183,0.163,0.273,0.404,0.273,0.721c0,0.412-0.166,0.715-0.502,0.906c-0.335,0.191-0.802,0.287-1.396,0.287
		c-0.479,0-0.979-0.094-1.502-0.281c-0.522-0.191-0.997-0.448-1.424-0.77H279.3v1.518c0.336,0.168,0.751,0.325,1.244,0.469
		c0.499,0.139,1.045,0.207,1.639,0.207c1.051,0,1.879-0.233,2.482-0.703c0.609-0.47,0.912-1.073,0.912-1.807
		c0-0.585-0.169-1.054-0.51-1.408c-0.34-0.35-0.825-0.599-1.453-0.742c-0.206-0.048-0.466-0.101-0.777-0.158
		c-0.307-0.058-0.584-0.114-0.834-0.172c-0.45-0.105-0.774-0.242-0.977-0.41c-0.206-0.168-0.311-0.417-0.311-0.748
		c0-0.374,0.172-0.654,0.512-0.842c0.341-0.191,0.757-0.287,1.25-0.287c0.475,0,0.96,0.088,1.453,0.266
		c0.494,0.173,0.915,0.387,1.26,0.641h0.07v-1.445c-0.326-0.168-0.734-0.309-1.229-0.424
		C283.544,499.41,283.059,499.349,282.58,499.349z M301.691,499.349c-0.484,0-0.976,0.045-1.475,0.131
		c-0.498,0.086-0.881,0.164-1.145,0.236v1.375h0.072c0.466-0.178,0.916-0.313,1.352-0.404c0.437-0.096,0.833-0.143,1.188-0.143
		c0.293,0,0.573,0.019,0.842,0.057s0.498,0.112,0.689,0.223c0.202,0.115,0.355,0.273,0.461,0.475
		c0.11,0.201,0.166,0.457,0.166,0.764v0.207c-0.786,0.038-1.523,0.098-2.209,0.174s-1.272,0.222-1.762,0.438
		c-0.484,0.216-0.857,0.514-1.121,0.893c-0.259,0.374-0.389,0.865-0.389,1.475c0,0.743,0.251,1.354,0.754,1.834
		c0.504,0.479,1.118,0.719,1.842,0.719c0.394,0,0.737-0.039,1.029-0.115c0.293-0.072,0.551-0.163,0.775-0.273
		c0.192-0.086,0.389-0.2,0.59-0.344c0.206-0.148,0.371-0.264,0.49-0.346v0.855h1.344v-5.451c0-0.518-0.078-0.953-0.236-1.303
		s-0.389-0.635-0.691-0.855c-0.307-0.226-0.672-0.384-1.094-0.475C302.747,499.397,302.257,499.349,301.691,499.349z
		 M222.101,499.544v8.033h1.352v-8.033H222.101z M232.603,499.544v8.033h1.352v-5.703c0.36-0.293,0.735-0.531,1.123-0.713
		c0.389-0.188,0.79-0.279,1.207-0.279c0.259,0,0.483,0.012,0.67,0.035c0.123,0.012,0.251,0.041,0.377,0.064v6.596h1.352v-8.033
		h-1.352v0.047c-0.059-0.008-0.147-0.021-0.189-0.025c-0.105-0.015-0.276-0.021-0.512-0.021c-0.427,0-0.845,0.092-1.258,0.273
		c-0.407,0.178-0.881,0.48-1.418,0.912v-1.186H232.603z M271.798,499.544v5.215c0,0.997,0.235,1.754,0.705,2.271
		c0.47,0.513,1.127,0.77,1.971,0.77c0.504,0,0.964-0.096,1.381-0.287s0.854-0.469,1.309-0.828v0.893h1.352v-8.033h-1.352v5.998
		c-0.359,0.283-0.747,0.516-1.164,0.697c-0.412,0.182-0.794,0.273-1.145,0.273c-0.393,0-0.692-0.049-0.898-0.145
		s-0.374-0.248-0.504-0.459c-0.124-0.206-0.205-0.455-0.244-0.742c-0.038-0.293-0.059-0.642-0.059-1.049v-4.574H271.798z
		 M291.431,499.544v8.033h1.352v-5.703c0.36-0.293,0.735-0.531,1.123-0.713c0.389-0.188,0.79-0.279,1.207-0.279
		c0.259,0,0.483,0.012,0.67,0.035c0.122,0.012,0.249,0.041,0.375,0.064v6.596h1.354v-8.033h-1.354v0.047
		c-0.059-0.008-0.147-0.021-0.189-0.025c-0.105-0.015-0.274-0.021-0.51-0.021c-0.427,0-0.845,0.092-1.258,0.273
		c-0.407,0.178-0.881,0.48-1.418,0.912v-1.186H291.431z M209.652,500.437c0.72,0,1.254,0.193,1.604,0.582
		c0.355,0.389,0.534,0.937,0.539,1.646h-4.604c0.058-0.633,0.3-1.163,0.727-1.59C208.349,500.648,208.928,500.437,209.652,500.437z
		 M228.15,500.437c0.72,0,1.254,0.193,1.604,0.582c0.355,0.389,0.536,0.937,0.541,1.646h-4.604c0.058-0.633,0.3-1.163,0.727-1.59
		C226.849,500.648,227.426,500.437,228.15,500.437z M201.359,500.536c0.308,0,0.613,0.035,0.92,0.107
		c0.312,0.067,0.648,0.183,1.008,0.346v4.381c-0.33,0.254-0.695,0.458-1.094,0.611c-0.393,0.148-0.786,0.223-1.18,0.223
		c-0.733,0-1.258-0.234-1.574-0.699s-0.475-1.147-0.475-2.049c0-0.949,0.214-1.674,0.641-2.172S200.616,500.536,201.359,500.536z
		 M266.572,500.558c0.341,0,0.654,0.031,0.941,0.094c0.288,0.063,0.614,0.175,0.979,0.338v4.609c-0.34,0.269-0.706,0.489-1.1,0.662
		c-0.393,0.168-0.782,0.252-1.166,0.252c-0.719,0-1.242-0.246-1.568-0.74c-0.326-0.498-0.488-1.226-0.488-2.18
		c0-0.969,0.211-1.717,0.633-2.244S265.815,500.558,266.572,500.558z M245.013,503.362v2.236c-0.335,0.259-0.7,0.482-1.094,0.67
		c-0.393,0.182-0.826,0.273-1.301,0.273c-0.57,0-0.995-0.115-1.273-0.346c-0.277-0.234-0.418-0.583-0.418-1.043
		c0-0.407,0.12-0.727,0.359-0.957c0.24-0.234,0.556-0.407,0.943-0.518c0.326-0.091,0.767-0.161,1.322-0.209
		C244.114,503.422,244.601,503.386,245.013,503.362z M303.841,503.362v2.236c-0.335,0.259-0.7,0.482-1.094,0.67
		c-0.393,0.182-0.828,0.273-1.303,0.273c-0.57,0-0.993-0.115-1.271-0.346c-0.277-0.234-0.418-0.583-0.418-1.043
		c0-0.407,0.12-0.727,0.359-0.957c0.24-0.234,0.556-0.407,0.943-0.518c0.326-0.091,0.767-0.161,1.322-0.209
		C302.942,503.422,303.429,503.386,303.841,503.362z"/>
	<g id="g4403" transform="matrix(1.1111111,0,0,-1.1111111,-276.28333,752.44114)">
		<g>
			<g id="g4405">
				<path id="path4411" inkscape:connector-curvature="0" fill="#231F20" d="M592.089,261.682h2.315v-22.447h-2.315V261.682z"/>
				<g id="g4413" transform="translate(605.0615,245.916)">
					<path id="path4415" inkscape:connector-curvature="0" fill="#231F20" d="M0,0c-2.939,0-4.84-0.801-4.84-2.668
						c0-1.754,1.308-2.41,3.061-2.41c2.672,0,4.036,1.934,4.095,4.187V0H0z M-6.709,5.434C-5.281,6.888-3.205,7.57-1.186,7.57
						c4.096,0,5.818-1.959,5.818-5.877v-5.964c0-0.807,0.091-1.697,0.206-2.411H2.615C2.467-6.059,2.467-5.195,2.467-4.598H2.406
						C1.486-6.025-0.059-7.035-2.167-7.035c-2.82,0-5.164,1.424-5.164,4.126c0,4.601,5.345,4.871,8.757,4.871h0.89v0.414
						c0,2.018-1.276,3.057-3.443,3.057c-1.484,0-3.03-0.504-4.126-1.514L-6.709,5.434"/>
				</g>
				<g id="g4417" transform="translate(632.0771,249.6602)">
					<path id="path4419" inkscape:connector-curvature="0" fill="#231F20" d="M0,0c-0.979,1.186-2.108,1.689-3.5,1.689
						c-3.119,0-4.693-2.316-4.693-5.164c0-2.853,1.871-5.168,4.693-5.168c1.513,0,2.672,0.538,3.532,1.724l1.721-1.634
						C0.42-10.096-1.482-10.779-3.5-10.779c-4.306,0-7.186,3.027-7.186,7.304c0,4.215,2.908,7.301,7.186,7.301
						c2.046,0,3.949-0.682,5.344-2.196L0,0"/>
				</g>
				<path id="path4421" inkscape:connector-curvature="0" fill="#231F20" d="M636.384,261.682h2.314v-22.447h-2.314V261.682z"/>
				<g id="g4423" transform="translate(649.3545,245.916)">
					<path id="path4425" inkscape:connector-curvature="0" fill="#231F20" d="M0,0c-2.938,0-4.838-0.801-4.838-2.668
						c0-1.754,1.303-2.41,3.055-2.41c2.674,0,4.039,1.934,4.099,4.187V0H0z M-6.707,5.434C-5.281,6.888-3.207,7.57-1.189,7.57
						c4.095,0,5.82-1.959,5.82-5.877v-5.964c0-0.807,0.09-1.697,0.207-2.411H2.613c-0.15,0.623-0.15,1.487-0.15,2.084H2.402
						c-0.917-1.427-2.464-2.437-4.57-2.437c-2.818,0-5.162,1.424-5.162,4.126c0,4.601,5.342,4.871,8.756,4.871h0.89v0.414
						c0,2.018-1.277,3.057-3.445,3.057c-1.484,0-3.027-0.504-4.126-1.514L-6.707,5.434"/>
				</g>
				<g id="g4427" transform="translate(658.3799,242.8887)">
					<path id="path4429" inkscape:connector-curvature="0" fill="#231F20" d="M0,0c0.92-1.127,1.93-1.871,3.561-1.871
						c1.455,0,3.059,0.627,3.059,2.141c0,1.48-1.484,1.867-2.97,2.197c-2.639,0.594-4.9,1.159-4.9,4.037
						c0,2.701,2.613,4.094,5.197,4.094c1.957,0,3.774-0.744,4.723-2.524L6.738,6.798C6.143,7.777,5.164,8.461,3.799,8.461
						c-1.276,0-2.733-0.623-2.733-1.93c0-1.157,1.665-1.664,3.504-2.017C7.033,4.037,9.113,3.15,9.113,0.359
						c0-3.15-2.793-4.367-5.552-4.367c-2.346,0-4.036,0.623-5.403,2.58L0,0"/>
				</g>
				<g id="g4431" transform="translate(680.9424,247.4297)">
					<path id="path4433" inkscape:connector-curvature="0" fill="#231F20" d="M0,0c-0.086,2.347-1.633,3.92-4.187,3.92
						c-2.555,0-4.245-1.573-4.542-3.92H0z M1.988-5.668C0.354-7.775-1.604-8.549-4.187-8.549c-4.365,0-7.038,3.268-7.038,7.305
						c0,4.305,3.032,7.301,7.125,7.301c3.923,0,6.594-2.67,6.594-7.278v-0.736H-8.729c0.178-2.404,2.018-4.455,4.542-4.455
						c1.988,0,3.328,0.717,4.421,2.107L1.988-5.668"/>
				</g>
				<g id="g4435" transform="translate(603.4775,223.7881)">
					<path id="path4437" inkscape:connector-curvature="0" fill="#231F20" d="M0,0C-0.09,2.346-1.631,3.917-4.186,3.917
						c-2.551,0-4.245-1.571-4.541-3.917H0z M1.989-5.669C0.357-7.782-1.604-8.549-4.186-8.549c-4.363,0-7.034,3.261-7.034,7.302
						c0,4.307,3.028,7.304,7.124,7.304c3.918,0,6.589-2.674,6.589-7.278V-1.96h-11.22c0.178-2.404,2.018-4.452,4.541-4.452
						c1.992,0,3.325,0.711,4.424,2.107L1.989-5.669"/>
				</g>
				<g id="g4439" transform="translate(610.458,236.6133)">
					<path id="path4441" inkscape:connector-curvature="0" fill="#231F20" d="M0,0c0.947,0,1.689-0.771,1.689-1.693
						C1.689-2.67,0.977-3.387,0-3.387c-0.98,0-1.693,0.717-1.693,1.694C-1.693-0.771-0.953,0,0,0 M1.154-24.135
						c0-1.429-0.681-4.011-4.128-4.011c-0.532,0-1.096,0.061-1.6,0.301l0.265,2.014c0.384-0.116,0.744-0.177,1.13-0.177
						c1.75,0,2.02,1.334,2.02,2.937v15.942h2.312V-24.135"/>
				</g>
				<g id="g4443" transform="translate(626.1611,223.7881)">
					<path id="path4445" inkscape:connector-curvature="0" fill="#231F20" d="M0,0C-0.09,2.346-1.633,3.917-4.187,3.917
						C-6.74,3.917-8.432,2.346-8.729,0H0z M1.99-5.669C0.354-7.782-1.604-8.549-4.187-8.549c-4.366,0-7.037,3.261-7.037,7.302
						c0,4.307,3.028,7.304,7.124,7.304c3.922,0,6.594-2.674,6.594-7.278V-1.96H-8.729c0.176-2.404,2.02-4.452,4.542-4.452
						c1.99,0,3.328,0.711,4.423,2.107L1.99-5.669"/>
				</g>
				<g id="g4447" transform="translate(641.8369,226.0146)">
					<path id="path4449" inkscape:connector-curvature="0" fill="#231F20" d="M0,0c-0.98,1.187-2.108,1.689-3.503,1.689
						c-3.117,0-4.69-2.313-4.69-5.164c0-2.851,1.871-5.165,4.69-5.165c1.513,0,2.672,0.535,3.532,1.723L1.75-8.548
						c-1.339-1.545-3.235-2.227-5.253-2.227c-4.308,0-7.186,3.026-7.186,7.301c0,4.217,2.911,7.305,7.186,7.305
						c2.046,0,3.951-0.685,5.344-2.196L0,0"/>
				</g>
				<g id="g4451" transform="translate(658.1631,218.8896)">
					<path id="path4453" inkscape:connector-curvature="0" fill="#231F20" d="M0,0c0-1.28,0.117-2.377,0.117-3.297h-2.199
						c0,0.743-0.057,1.513-0.057,2.286h-0.06C-2.826-2.378-4.545-3.65-6.83-3.65c-3.65,0-5.281,2.312-5.281,5.667v8.579h2.312V2.254
						c0-2.314,1.008-3.769,3.175-3.769c3.001,0,4.305,2.167,4.305,5.346v6.765H0V0"/>
				</g>
				<g id="g4455" transform="translate(669.9756,227.5273)">
					<path id="path4457" inkscape:connector-curvature="0" fill="#231F20" d="M0,0h-4.094v-6.95c0-1.778,0.03-3.201,2.074-3.201
						c0.687,0,1.427,0.15,2.05,0.473l0.088-2.107c-0.799-0.36-1.838-0.503-2.701-0.503c-3.295,0-3.828,1.777-3.828,4.656V0h-3.028
						v1.957h3.028v3.948h2.316V1.957H0V0"/>
				</g>
				<path id="path4459" inkscape:connector-curvature="0" fill="#231F20" d="M672.649,229.485h2.313v-13.893h-2.313V229.485z
					 M673.804,236.613c0.951,0,1.693-0.771,1.693-1.693c0-0.977-0.709-1.693-1.693-1.693c-0.977,0-1.69,0.716-1.69,1.693
					C672.114,235.842,672.86,236.613,673.804,236.613"/>
				<g id="g4461" transform="translate(685.624,215.5928)">
					<path id="path4463" inkscape:connector-curvature="0" fill="#231F20" d="M0,0h-2.555l-5.672,13.893h2.702l4.338-10.896h0.055
						l4.127,10.896H5.49L0,0z"/>
				</g>
				<g id="g4465" transform="translate(699.7822,222.2734)">
					<path id="path4467" inkscape:connector-curvature="0" fill="#231F20" d="M0,0c-2.939,0-4.838-0.806-4.838-2.673
						c0-1.751,1.308-2.403,3.061-2.403c2.668,0,4.035,1.926,4.097,4.185V0H0z M-6.707,5.432c1.424,1.455,3.504,2.138,5.52,2.138
						c4.101,0,5.817-1.96,5.817-5.878v-5.967c0-0.802,0.091-1.693,0.211-2.406H2.613C2.467-6.058,2.467-5.197,2.467-4.604H2.404
						c-0.919-1.423-2.465-2.43-4.568-2.43c-2.824,0-5.168,1.423-5.168,4.124c0,4.603,5.346,4.871,8.76,4.871H2.32v0.417
						c0,2.018-1.279,3.055-3.447,3.055c-1.486,0-3.027-0.504-4.127-1.514L-6.707,5.432"/>
				</g>
			</g>
		</g>
	</g>
	<rect x="356.424" y="452.362" fill="#231F20" width="1" height="80"/>
</g>
</svg>
