<?xml version="1.0" encoding="UTF-8" standalone="no"?>
<!-- Generator: Adobe Illustrator 16.0.3, SVG Export Plug-In . SVG Version: 6.00 Build 0)  -->

<svg
   xmlns:dc="http://purl.org/dc/elements/1.1/"
   xmlns:cc="http://creativecommons.org/ns#"
   xmlns:rdf="http://www.w3.org/1999/02/22-rdf-syntax-ns#"
   xmlns:svg="http://www.w3.org/2000/svg"
   xmlns="http://www.w3.org/2000/svg"
   xmlns:sodipodi="http://sodipodi.sourceforge.net/DTD/sodipodi-0.dtd"
   xmlns:inkscape="http://www.inkscape.org/namespaces/inkscape"
   version="1.1"
   id="Capa_1"
   x="0px"
   y="0px"
   width="35.181286"
   height="33.721748"
   viewBox="0 0 35.181284 33.721748"
   enable-background="new 0 0 595.28 841.89"
   xml:space="preserve"
   inkscape:version="0.91 r13725"
   sodipodi:docname="icono modalidad.svg"><metadata
     id="metadata4179"><rdf:RDF><cc:Work
         rdf:about=""><dc:format>image/svg+xml</dc:format><dc:type
           rdf:resource="http://purl.org/dc/dcmitype/StillImage" /><dc:title></dc:title></cc:Work></rdf:RDF></metadata><defs
     id="defs4177" /><sodipodi:namedview
     pagecolor="#ffffff"
     bordercolor="#666666"
     borderopacity="1"
     objecttolerance="10"
     gridtolerance="10"
     guidetolerance="10"
     inkscape:pageopacity="0"
     inkscape:pageshadow="2"
     inkscape:window-width="1920"
     inkscape:window-height="1018"
     id="namedview4175"
     showgrid="false"
     fit-margin-top="1"
     fit-margin-left="1"
     fit-margin-right="1"
     fit-margin-bottom="1"
     borderlayer="true"
     inkscape:zoom="15.04"
     inkscape:cx="18.028788"
     inkscape:cy="19.016572"
     inkscape:window-x="-8"
     inkscape:window-y="-8"
     inkscape:window-maximized="1"
     inkscape:current-layer="Capa_1" /><path
     d="m 29.245773,12.81875 -13.383,-11.599 c -0.335,-0.293 -0.833,-0.293 -1.169,0 l -4.77,4.134 0,-1.676 c 0,-0.984 -0.8,-1.784 -1.785,-1.784 -0.985,0 -1.785,0.8 -1.785,1.784 l 0,4.767 -5.046,4.374 c -0.37200005,0.323 -0.41300005,0.886 -0.089,1.261 0.325,0.37 0.886,0.41 1.259,0.089 l 12.798,-11.092 12.8,11.092 c 0.169,0.144 0.376,0.215 0.585,0.215 0.25,0 0.495,-0.103 0.673,-0.304 0.323,-0.375 0.282,-0.936 -0.088,-1.261"
     id="path4137"
     inkscape:connector-curvature="0"
     style="fill:#a6c6e9" /><path
     d="m 16.406773,7.65175 c -0.327,-0.27 -0.729,-0.405 -1.131,-0.405 -0.401,0 -0.803,0.135 -1.131,0.405 l -8.922,7.315 c -0.415,0.338 -0.654,0.843 -0.654,1.38 l 0,8.747 c 0,0.984 0.8,1.783 1.785,1.783 l 5.354,0 0,-8.923 7.138,0 0,8.923 5.354,0 c 0.982,0 1.784,-0.799 1.784,-1.783 l 0,-8.747 c 0,-0.537 -0.24,-1.042 -0.655,-1.379 l -8.922,-7.316 z"
     id="path4139"
     inkscape:connector-curvature="0"
     style="fill:#a6c6e9" /><path
     d="m 21.758773,20.74375 c 4.084,0 7.396,-3.311 7.396,-7.395 0,-4.085 -3.312,-7.396 -7.396,-7.396 -4.085,0 -7.396,3.311 -7.396,7.396 0,4.084 3.311,7.395 7.396,7.395"
     id="path4141"
     inkscape:connector-curvature="0"
     style="fill:#ffffff" /><circle
     cx="21.758768"
     cy="13.348736"
     r="7.3959999"
     id="circle4143"
     style="fill:none;stroke:#6e8ab6;stroke-width:0.42300001" /><path
     d="m 20.169773,17.92475 c -0.543,0.265 -0.814,-0.29 -0.814,-0.29 l -2.712,-5.563 6.521,-3.179 2.711,5.562 c 0.125,0.255 0.289,0.395 0.455,0.465 l -6.161,3.005 z m 3.808,-8.74 -0.542,-1.11 -7.606,3.709 2.982,6.115 c 0,0 0.543,1.112 1.629,0.582 l 6.792,-3.312 c 0,0 0.809,-0.415 0.271,-1.508 l -2.44,-5.005 -1.086,0.529 z"
     id="path4145"
     inkscape:connector-curvature="0"
     style="fill:#6e8ab6" /><rect
     x="-16.306391"
     y="-20.026577"
     transform="matrix(-0.89882322,0.43831132,-0.43831132,-0.89882322,0,0)"
     width="6.0438442"
     height="0.617984"
     id="rect4147"
     style="fill:#6e8ab6" /><rect
     x="-15.707322"
     y="-23.737514"
     transform="matrix(-0.89862712,0.43871324,-0.43871324,-0.89862712,0,0)"
     width="2.1169362"
     height="0.61898136"
     id="rect4149"
     style="fill:#6e8ab6" /><rect
     x="-16.296852"
     y="-22.481524"
     transform="matrix(-0.89868578,0.43859306,-0.43859306,-0.89868578,0,0)"
     width="2.7200432"
     height="0.62000984"
     id="rect4151"
     style="fill:#6e8ab6" /><rect
     x="-16.329304"
     y="-21.218222"
     transform="matrix(-0.89878382,0.43839211,-0.43839211,-0.89878382,0,0)"
     width="2.7210488"
     height="0.61701107"
     id="rect4153"
     style="fill:#6e8ab6" /><rect
     x="-12.996317"
     y="-23.729855"
     transform="matrix(-0.89862712,0.43871324,-0.43871324,-0.89862712,0,0)"
     width="2.7209179"
     height="3.0929067"
     id="rect4155"
     style="fill:#6e8ab6" /><path
     d="m 28.450773,27.95175 c 3.048,0 5.519,-2.47 5.519,-5.519 0,-3.049 -2.471,-5.52 -5.519,-5.52 -3.049,0 -5.521,2.471 -5.521,5.52 0,3.049 2.472,5.519 5.521,5.519"
     id="path4157"
     inkscape:connector-curvature="0"
     style="fill:#ffffff" /><circle
     cx="28.450785"
     cy="22.432751"
     r="5.5190001"
     id="circle4159"
     style="fill:none;stroke:#1a5696;stroke-width:0.42300001" /><path
     d="m 25.247773,24.51675 0.209,0 5.758,0 0,1.048 -5.758,0 -0.209,0 c -0.289,0 -0.524,-0.234 -0.524,-0.525 0,-0.288 0.235,-0.523 0.524,-0.523 m 0.524,-1.65 0.21,0 5.88,0 0,1.045 -5.88,0 -0.21,0 c -0.287,0 -0.523,-0.233 -0.523,-0.522 -0.001,-0.29 0.236,-0.523 0.523,-0.523 m -0.863,-1.295 c 0,-0.195 0.107,-0.363 0.268,-0.455 l 6.248,0 0,0.979 -5.993,0 c -0.289,0 -0.523,-0.237 -0.523,-0.524 m -0.604,3.467 c 0,0.521 0.424,0.945 0.943,0.945 l 0.209,0 5.758,0 0.419,0 0.437,0 0,-0.42 -0.437,0 0,-1.048 0.437,0 0,-0.185 0.211,0 0.313,0 0,-0.42 -0.313,0 0,-1.045 0.313,0 0,-0.422 -0.313,0 -0.027,0 0,-0.138 0,-0.212 0,-0.01 -0.518,-0.969 0.545,0 0,-0.562 -1.369,-1.674 -4.828,0 -1.244,1.96 c -0.213,0.175 -0.352,0.436 -0.352,0.73 0,0.519 0.418,0.938 0.934,0.942 -0.346,0.14 -0.594,0.478 -0.594,0.875 0,0.289 0.134,0.543 0.336,0.716 -0.48,0.047 -0.86,0.447 -0.86,0.937"
     id="path4161"
     inkscape:connector-curvature="0"
     style="fill:#1a5696" /><rect
     x="10.141764"
     y="19.767742"
     width="12.72"
     height="7.026"
     id="rect4163"
     style="fill:#ffffff" /><path
     d="m 15.065773,32.02175 0.228,-1.04 2.686,0 0.228,1.04 -3.142,0 z m 8.405,-4.397 -13.668,0 -1.124,5.097 15.917,0 -1.125,-5.097 z"
     id="path4165"
     inkscape:connector-curvature="0"
     style="fill:#1a5696" /><path
     d="m 22.467773,26.49375 -11.661,0 0,-6.293 4.367,0 2.927,0 4.367,0 0,6.293 z m 0.968,0.809 0,-3.129 0,-4.939 -5.129,0 -3.34,0 -5.127,0 0,4.939 0,3.127 13.596,0 0,0.002 z"
     id="path4167"
     inkscape:connector-curvature="0"
     style="fill:#1a5696" /><path
     d="m 14.559773,20.94675 c 0.674,0 1.221,0.548 1.221,1.221 0,0.674 -0.547,1.221 -1.221,1.221 -0.675,0 -1.221,-0.547 -1.221,-1.221 0,-0.673 0.546,-1.221 1.221,-1.221"
     id="path4169"
     inkscape:connector-curvature="0"
     style="fill:#1a5696" /><polygon
     points="292.648,429.529 293.033,429.529 293.052,429.895 295.257,429.895 295.274,429.529 295.562,429.529 295.562,427.452 294.642,427.152 294.19,427.692 293.726,427.152 292.648,427.399 "
     id="polygon4171"
     style="fill:#1a5696"
     transform="translate(-279.61123,-403.58025)" /><path
     d="m 18.685773,20.88075 c 1.161,0 2.105,0.625 2.105,1.391 0,0.783 -1.158,1.211 -1.657,1.358 -0.654,0.194 -1.541,0.353 -1.926,0.417 l 0.345,-0.603 -0.09,-0.044 c -0.552,-0.262 -0.882,-0.686 -0.882,-1.129 10e-4,-0.765 0.945,-1.39 2.105,-1.39 m -2.29,1.391 c 0,0.494 0.334,0.955 0.899,1.252 l -0.439,0.769 0.189,-0.03 c 0.013,-0.002 1.276,-0.199 2.143,-0.455 1.136,-0.334 1.788,-0.895 1.788,-1.535 0,-0.867 -1.026,-1.573 -2.29,-1.573 -1.263,-0.002 -2.29,0.704 -2.29,1.572"
     id="path4173"
     inkscape:connector-curvature="0"
     style="fill:#1a5696" /></svg>