<?xml version="1.0" encoding="UTF-8" standalone="no"?>
<!-- Generator: Adobe Illustrator 16.0.3, SVG Export Plug-In . SVG Version: 6.00 Build 0)  -->

<svg
   xmlns:dc="http://purl.org/dc/elements/1.1/"
   xmlns:cc="http://creativecommons.org/ns#"
   xmlns:rdf="http://www.w3.org/1999/02/22-rdf-syntax-ns#"
   xmlns:svg="http://www.w3.org/2000/svg"
   xmlns="http://www.w3.org/2000/svg"
   xmlns:sodipodi="http://sodipodi.sourceforge.net/DTD/sodipodi-0.dtd"
   xmlns:inkscape="http://www.inkscape.org/namespaces/inkscape"
   version="1.1"
   id="Capa_1"
   x="0px"
   y="0px"
   width="43.438"
   height="53.827999"
   viewBox="0 0 43.438 53.827999"
   enable-background="new 0 0 100 100"
   xml:space="preserve"
   inkscape:version="0.91 r13725"
   sodipodi:docname="icono-chile.svg"><metadata
     id="metadata4901"><rdf:RDF><cc:Work
         rdf:about=""><dc:format>image/svg+xml</dc:format><dc:type
           rdf:resource="http://purl.org/dc/dcmitype/StillImage" /><dc:title></dc:title></cc:Work></rdf:RDF></metadata><defs
     id="defs4899" /><sodipodi:namedview
     pagecolor="#ffffff"
     bordercolor="#666666"
     borderopacity="1"
     objecttolerance="10"
     gridtolerance="10"
     guidetolerance="10"
     inkscape:pageopacity="0"
     inkscape:pageshadow="2"
     inkscape:window-width="1920"
     inkscape:window-height="1018"
     id="namedview4897"
     showgrid="false"
     fit-margin-top="1"
     fit-margin-left="1"
     fit-margin-right="1"
     fit-margin-bottom="1"
     inkscape:zoom="13.37"
     inkscape:cx="21.332"
     inkscape:cy="26.676002"
     inkscape:window-x="-8"
     inkscape:window-y="-8"
     inkscape:window-maximized="1"
     inkscape:current-layer="Capa_1" /><path
     d="m 27.564,9.051 c 0.057,0.931 -1.416,0.82 -1.824,1.436 -0.076,0.115 -0.033,0.325 -0.107,0.479 -0.076,0.163 -0.242,0.263 -0.268,0.358 -0.073,0.278 -0.057,1.183 0,1.516 0.021,0.124 0.24,0.281 0.215,0.438 -0.025,0.154 -0.449,0.368 -0.643,0.559 -0.276,0.271 -0.482,0.73 -0.645,0.998 -0.309,0.507 -0.957,0.891 -1.073,1.554 -0.06,0.345 0.146,0.832 0,1.196 -0.101,0.254 -0.653,0.406 -0.804,0.638 -0.064,0.102 -0.038,0.261 -0.108,0.398 -0.093,0.182 -0.302,0.27 -0.321,0.398 -0.041,0.27 0.434,0.469 0.59,0.798 0.063,0.134 0,0.294 0.053,0.479 0.042,0.144 0.201,0.272 0.269,0.438 0.066,0.163 0.063,0.352 0.106,0.439 0.125,0.251 0.494,0.443 0.537,0.638 0.103,0.457 -0.588,1.352 -0.751,1.794 -0.049,0.134 -0.004,0.294 -0.053,0.398 -0.065,0.14 -0.28,0.256 -0.322,0.399 -0.063,0.215 0.057,0.531 0,0.717 -0.135,0.438 -0.673,0.663 -0.858,1.038 -0.49,0.991 0.131,1.761 0.161,2.79 -0.513,0.256 -1.079,0.885 -0.805,1.355 -0.011,0.192 -0.222,0.235 -0.322,0.359 -0.025,0.205 0.258,0.181 0.214,0.398 -0.808,0.649 0.026,1.551 0.108,2.353 -0.156,0.097 -0.436,0.101 -0.644,0.158 0.041,0.517 0.139,0.987 0.536,1.237 0.023,0.188 -0.22,0.183 -0.16,0.398 0.354,0.266 0.359,0.73 0.268,1.235 0.186,0.101 0.571,0.054 0.644,0.24 -0.032,0.256 -0.64,0.083 -0.805,0.239 0.031,0.281 0.462,0.269 0.59,0.478 -0.056,0.344 -0.303,0.545 -0.697,0.638 0.261,0.146 0.048,0.408 0.107,0.639 0.035,0.134 0.189,0.224 0.215,0.358 0.172,0.944 -0.472,1.405 -1.02,1.834 0.326,0.348 0.336,0.9 -0.107,1.156 -0.199,0.916 -1.329,1.407 -0.751,2.551 0.385,0.024 0.743,-0.105 1.073,0 0.272,0.384 -0.082,0.782 0,1.156 0.195,0.892 1.548,0.471 2.628,0.678 0.402,0.079 0.645,0.283 0.966,0.32 -0.362,0.566 -1.453,0.42 -1.931,0.876 -0.345,0.33 -0.183,0.796 -0.591,1.156 -0.221,0.071 -0.712,0.036 -0.804,-0.118 0.169,-0.486 1.095,-0.773 0.644,-1.276 -0.264,-0.293 -1.003,-0.133 -1.395,-0.398 0.388,-0.52 0.331,-1.187 -0.536,-1.316 -0.12,0.154 0.174,0.24 0.161,0.479 -0.027,0.464 -0.688,0.555 -0.698,0 -0.235,-0.001 -0.243,0.191 -0.483,0.08 -0.031,-0.145 -0.09,-0.268 0,-0.399 0.267,-0.065 0.171,0.14 0.376,0.12 -0.081,-0.174 0.043,-0.365 -0.107,-0.558 -0.146,-0.19 -0.366,-0.057 -0.375,-0.279 -0.011,-0.233 0.445,-0.246 0.482,-0.438 0.032,-0.17 -0.293,-0.261 -0.429,-0.48 -0.256,-0.412 -0.245,-0.953 0.108,-1.274 0.071,-0.192 -0.293,-0.186 -0.376,-0.398 -0.107,-0.276 -0.017,-0.642 0.268,-0.759 -0.069,-0.148 -0.22,-0.235 -0.161,-0.479 0.08,-0.113 0.281,-0.137 0.536,-0.119 -0.246,-0.322 -0.691,-0.497 -0.858,-0.877 -0.084,-0.262 0.287,-0.187 0.268,-0.399 -0.03,-0.455 -1.079,-0.154 -1.019,-0.677 -0.334,0.098 -0.505,0.89 -0.965,0.397 l 0,-0.319 c 0.608,-0.279 0.681,-0.956 1.609,-0.996 0.026,0.405 0.507,0.473 0.643,0.798 1.071,-0.024 -0.117,-1.255 0.859,-1.356 -0.021,-0.212 -0.383,-0.167 -0.376,-0.398 0.007,-0.223 0.392,-0.161 0.376,-0.398 -0.223,0.019 -0.33,-0.048 -0.376,-0.16 -0.037,-0.259 0.379,-0.255 0.43,-0.479 0.029,-0.133 -0.153,-0.266 -0.108,-0.398 0.07,-0.2 0.308,-0.174 0.429,-0.359 -0.133,-0.151 -0.406,-0.203 -0.429,-0.438 0.066,-0.244 0.46,-0.241 0.483,-0.519 -0.442,-0.302 -0.135,-0.964 0.268,-1.116 -0.156,-0.108 -0.435,-0.128 -0.483,-0.318 0.054,-0.16 0.279,-0.192 0.376,-0.319 -0.24,-0.086 -0.286,-0.319 -0.644,-0.319 0.003,0.335 -0.224,0.498 -0.75,0.439 -0.722,-0.816 -0.56,-2.322 0.321,-2.99 -0.48,-0.862 -1.046,-2.054 -0.858,-3.149 0.288,0.029 0.459,-0.032 0.644,-0.081 0.18,-0.414 0.291,-0.755 0.429,-1.235 0.033,-0.116 0.215,-0.258 0.268,-0.399 0.074,-0.192 0.037,-0.415 0.107,-0.557 0.094,-0.191 0.389,-0.33 0.483,-0.52 0.264,-0.536 0.172,-1.111 0.375,-1.674 0.067,-0.186 0.287,-0.337 0.376,-0.519 0.255,-0.523 0.248,-1.059 0.268,-1.635 -0.966,-1.35 0.075,-2.792 -0.054,-4.306 0.933,-0.893 0.945,-1.997 1.181,-3.349 0.145,-0.838 0.391,-1.728 0.32,-2.751 C 22.006,9.294 21.792,8.83 21.878,8.455 21.949,8.148 22.311,7.893 22.469,7.578 22.628,7.258 22.787,6.847 22.738,6.422 22.709,6.188 22.512,5.96 22.469,5.704 22.365,5.096 22.589,4.416 22.469,3.831 22.383,3.418 22.104,2.857 22.254,2.276 22.588,1.965 23.131,1.811 23.112,1.238 23.259,1.124 23.542,1.108 23.702,1 l 0.214,0 c 0.653,0.896 1.006,2.018 1.878,2.752 -0.279,0.187 -0.177,0.517 -0.322,0.718 -0.105,0.144 -0.396,0.158 -0.429,0.317 -0.038,0.178 0.222,0.285 0.375,0.479 0.071,0.092 0.106,0.242 0.214,0.398 0.157,0.224 0.428,0.417 0.484,0.559 0.283,0.706 0.002,1.258 0.375,1.874 0.494,0.031 1.064,0.005 1.019,0.438 l 0.054,0.516 z"
     id="path4813"
     inkscape:connector-curvature="0"
     style="clip-rule:evenodd;fill:#1a5696;fill-rule:evenodd" /><path
     d="m 18.286,33.85 c 0.267,0.66 -0.282,1.646 -1.019,1.076 0.046,-0.71 0.068,-1.438 0.375,-1.953 0.614,-0.02 0.827,0.263 0.912,0.638 0.082,0.206 -0.245,0.111 -0.268,0.239"
     id="path4815"
     inkscape:connector-curvature="0"
     style="clip-rule:evenodd;fill:#1a5696;fill-rule:evenodd" /><path
     d="m 18.286,36.202 c -0.138,0.09 -0.379,0.017 -0.483,-0.04 -0.099,-0.425 0.561,-0.274 0.483,0.04"
     id="path4817"
     inkscape:connector-curvature="0"
     style="clip-rule:evenodd;fill:#1a5696;fill-rule:evenodd" /><path
     d="m 17.48,36.401 c 0.248,-0.011 0.289,0.132 0.375,0.239 -0.021,0.144 -0.171,0.193 -0.375,0.198 -0.145,-0.111 -0.108,-0.311 0,-0.437"
     id="path4819"
     inkscape:connector-curvature="0"
     style="clip-rule:evenodd;fill:#1a5696;fill-rule:evenodd" /><path
     d="m 18.231,36.522 c 0.231,0.029 0.18,0.312 -0.107,0.278 -0.128,-0.1 0.008,-0.228 0.107,-0.278"
     id="path4821"
     inkscape:connector-curvature="0"
     style="clip-rule:evenodd;fill:#1a5696;fill-rule:evenodd" /><path
     d="m 16.408,36.921 c 0.205,-0.01 0.342,0.164 0.214,0.279 -0.239,0.034 -0.321,-0.18 -0.214,-0.279"
     id="path4823"
     inkscape:connector-curvature="0"
     style="clip-rule:evenodd;fill:#1a5696;fill-rule:evenodd" /><path
     d="m 18.286,37.081 c 0.104,0.241 0.068,0.565 -0.268,0.597 -0.099,-0.061 -0.164,-0.143 -0.162,-0.279 -0.168,-0.02 -0.121,0.122 -0.322,0.081 -0.025,-0.092 -0.105,-0.205 0,-0.279 0.391,0.111 0.451,-0.072 0.752,-0.12"
     id="path4825"
     inkscape:connector-curvature="0"
     style="clip-rule:evenodd;fill:#1a5696;fill-rule:evenodd" /><path
     d="m 17.213,37.358 c 0.078,0.058 0.078,0.262 0,0.319 -0.283,0.021 -0.283,-0.339 0,-0.319"
     id="path4827"
     inkscape:connector-curvature="0"
     style="clip-rule:evenodd;fill:#1a5696;fill-rule:evenodd" /><path
     d="m 17.427,37.797 c 0.08,0.123 0.015,0.208 -0.053,0.318 -0.171,0.035 -0.166,-0.062 -0.268,-0.079 0.005,-0.155 0.065,-0.27 0.321,-0.239"
     id="path4829"
     inkscape:connector-curvature="0"
     style="clip-rule:evenodd;fill:#1a5696;fill-rule:evenodd" /><path
     d="m 18.179,37.837 c 0.014,0.197 -0.111,0.29 -0.376,0.278 -0.043,-0.216 0.082,-0.31 0.376,-0.278"
     id="path4831"
     inkscape:connector-curvature="0"
     style="clip-rule:evenodd;fill:#1a5696;fill-rule:evenodd" /><path
     d="m 17.963,38.276 c 0.294,-0.063 0.447,0.279 0.216,0.358 -0.25,0.021 -0.335,-0.23 -0.216,-0.358"
     id="path4833"
     inkscape:connector-curvature="0"
     style="clip-rule:evenodd;fill:#1a5696;fill-rule:evenodd" /><path
     d="m 17.32,40.548 c 0.092,0.255 0.516,0.585 0.213,0.878 -0.224,-0.007 -0.224,-0.18 -0.32,-0.279 -0.147,0.116 -0.423,0.119 -0.591,0.119 -0.085,0.056 -0.056,0.197 -0.16,0.239 -0.231,0.012 -0.355,-0.055 -0.484,-0.12 l 0,-0.238 c 0.398,0.057 0.589,-0.042 0.59,-0.279 0.501,0.078 0.302,-0.362 0.752,-0.32"
     id="path4835"
     inkscape:connector-curvature="0"
     style="clip-rule:evenodd;fill:#1a5696;fill-rule:evenodd" /><path
     d="m 16.945,41.546 c 0.253,-0.018 0.354,0.081 0.429,0.198 -0.036,0.134 -0.138,0.216 -0.376,0.2 -0.119,-0.055 -0.157,-0.302 -0.053,-0.398"
     id="path4837"
     inkscape:connector-curvature="0"
     style="clip-rule:evenodd;fill:#1a5696;fill-rule:evenodd" /><path
     d="m 16.73,41.705 c 0.039,0.148 0.03,0.223 -0.053,0.357 -0.411,0.039 -0.528,-0.139 -0.752,-0.238 0.222,-0.076 0.524,-0.21 0.805,-0.119"
     id="path4839"
     inkscape:connector-curvature="0"
     style="clip-rule:evenodd;fill:#1a5696;fill-rule:evenodd" /><path
     d="m 17.48,42.223 c -0.698,0.183 -0.173,-0.52 0,0"
     id="path4841"
     inkscape:connector-curvature="0"
     style="clip-rule:evenodd;fill:#1a5696;fill-rule:evenodd" /><path
     d="m 16.945,42.261 0.107,0 c 0.336,0.017 0.415,0.465 0.215,0.64 -0.364,-0.005 -0.388,-0.446 -0.322,-0.64"
     id="path4843"
     inkscape:connector-curvature="0"
     style="clip-rule:evenodd;fill:#1a5696;fill-rule:evenodd" /><path
     d="m 16.247,42.622 c 0.097,-0.006 0.114,0.049 0.215,0.04 0.018,0.092 -0.008,0.152 -0.053,0.198 -0.181,0.01 -0.278,-0.148 -0.162,-0.238"
     id="path4845"
     inkscape:connector-curvature="0"
     style="clip-rule:evenodd;fill:#1a5696;fill-rule:evenodd" /><path
     d="m 16.623,43.02 c 0.241,0.187 0.126,0.5 -0.161,0.599 -0.425,-0.058 -0.298,-0.638 0.161,-0.599"
     id="path4847"
     inkscape:connector-curvature="0"
     style="clip-rule:evenodd;fill:#1a5696;fill-rule:evenodd" /><path
     d="m 17.534,43.02 c 0.066,0.151 0.191,0.423 0.054,0.599 -0.433,0.029 -0.652,-0.643 -0.054,-0.599"
     id="path4849"
     inkscape:connector-curvature="0"
     style="clip-rule:evenodd;fill:#1a5696;fill-rule:evenodd" /><path
     d="m 16.623,43.698 c 0.087,-0.011 0.092,0.037 0.161,0.04 -0.056,0.155 -0.02,0.383 -0.268,0.398 -0.121,-0.129 0.011,-0.344 0.107,-0.438"
     id="path4851"
     inkscape:connector-curvature="0"
     style="clip-rule:evenodd;fill:#1a5696;fill-rule:evenodd" /><path
     d="m 17.427,43.896 c 0.06,0.256 -0.276,0.271 -0.429,0.16 -0.028,-0.175 0.251,-0.261 0.429,-0.16"
     id="path4853"
     inkscape:connector-curvature="0"
     style="clip-rule:evenodd;fill:#1a5696;fill-rule:evenodd" /><path
     d="m 16.837,44.297 c 0.022,0.136 -0.021,0.223 -0.054,0.318 -0.151,0.047 -0.228,0.008 -0.375,-0.041 -0.106,-0.169 0.086,-0.325 0.429,-0.277"
     id="path4855"
     inkscape:connector-curvature="0"
     style="clip-rule:evenodd;fill:#1a5696;fill-rule:evenodd" /><path
     d="m 17.642,44.934 c 0.166,0.367 -0.182,0.648 -0.429,0.837 0.285,0.135 0.346,0.545 0.107,0.757 -0.573,0.091 -0.094,-0.761 -0.483,-0.678 0.121,-0.395 0.194,-1.012 0.805,-0.916"
     id="path4857"
     inkscape:connector-curvature="0"
     style="clip-rule:evenodd;fill:#1a5696;fill-rule:evenodd" /><path
     d="m 17.803,46.569 c 0.207,-0.01 0.395,-0.001 0.537,0.039 -0.04,0.122 0.092,0.117 0.053,0.239 -0.115,0.112 -0.286,0.066 -0.483,0.04 -0.061,-0.088 -0.14,-0.164 -0.107,-0.318"
     id="path4859"
     inkscape:connector-curvature="0"
     style="clip-rule:evenodd;fill:#1a5696;fill-rule:evenodd" /><path
     d="m 19.25,46.806 c 0.027,0.261 -0.086,0.414 -0.429,0.399 -0.3,-0.198 0.038,-0.591 0.429,-0.399"
     id="path4861"
     inkscape:connector-curvature="0"
     style="clip-rule:evenodd;fill:#1a5696;fill-rule:evenodd" /><path
     d="m 18.393,47.246 c 0.031,0.196 -0.176,0.215 -0.429,0.199 -0.282,-0.265 0.306,-0.449 0.429,-0.199"
     id="path4863"
     inkscape:connector-curvature="0"
     style="clip-rule:evenodd;fill:#1a5696;fill-rule:evenodd" /><path
     d="m 19.358,47.246 c 0.243,0.005 0.216,0.212 0.215,0.399 -0.296,0.015 -0.294,0.015 -0.59,0 0.09,-0.16 0.119,-0.363 0.375,-0.399"
     id="path4865"
     inkscape:connector-curvature="0"
     style="clip-rule:evenodd;fill:#1a5696;fill-rule:evenodd" /><path
     d="m 17.374,47.366 c 0.408,0.078 1.093,0.298 0.75,0.678 -0.4,-0.114 -0.654,-0.337 -0.75,-0.678"
     id="path4867"
     inkscape:connector-curvature="0"
     style="clip-rule:evenodd;fill:#1a5696;fill-rule:evenodd" /><path
     d="m 23.811,47.366 c 0.258,0.912 0.369,2.3 0.053,3.189 -0.766,0.114 -0.865,-0.568 -1.717,-0.519 0.007,-0.341 0.439,-0.348 0.752,-0.357 -0.094,-0.296 -0.561,-0.509 -0.321,-0.918 0.004,-0.224 0.425,-0.136 0.428,-0.36 -0.235,-0.097 -0.437,-0.039 -0.697,-0.158 -0.233,-0.685 0.698,-0.831 1.502,-0.877"
     id="path4869"
     inkscape:connector-curvature="0"
     style="clip-rule:evenodd;fill:#1a5696;fill-rule:evenodd" /><path
     d="m 20.914,47.484 c -0.078,0.303 -0.493,0.353 -0.911,0.399 -0.089,-0.128 -0.093,-0.165 -0.054,-0.318 0.2,-0.114 0.658,-0.167 0.965,-0.081"
     id="path4871"
     inkscape:connector-curvature="0"
     style="clip-rule:evenodd;fill:#1a5696;fill-rule:evenodd" /><path
     d="m 18.929,47.843 c 0.334,-0.035 0.474,0.074 0.591,0.2 -0.001,0.172 -0.268,0.147 -0.269,0.318 0.163,0.091 0.438,0.1 0.644,0.16 0.056,0.145 0.193,0.393 0.054,0.558 -0.313,-0.021 -0.751,-0.235 -1.02,-0.358 -0.149,-0.068 -0.346,-0.219 -0.321,-0.439 l 0.429,0 c 0.103,-0.119 -0.29,-0.249 -0.108,-0.439"
     id="path4873"
     inkscape:connector-curvature="0"
     style="clip-rule:evenodd;fill:#1a5696;fill-rule:evenodd" /><path
     d="m 21.826,48.642 c 0.261,0.041 0.209,0.441 -0.162,0.358 -0.115,-0.157 0.009,-0.29 0.162,-0.358"
     id="path4875"
     inkscape:connector-curvature="0"
     style="clip-rule:evenodd;fill:#1a5696;fill-rule:evenodd" /><path
     d="m 20.7,48.96 c 0.068,0.264 -0.217,0.435 -0.484,0.32 0,-0.227 0.159,-0.334 0.484,-0.32"
     id="path4877"
     inkscape:connector-curvature="0"
     style="clip-rule:evenodd;fill:#1a5696;fill-rule:evenodd" /><path
     d="m 22.255,49.24 c -0.005,0.258 -0.537,0.155 -0.644,0.04 -0.166,0.035 -0.145,0.211 -0.376,0.197 0.074,-0.199 -0.215,-0.131 -0.321,-0.197 0.076,-0.493 0.965,-0.062 1.341,-0.04"
     id="path4879"
     inkscape:connector-curvature="0"
     style="clip-rule:evenodd;fill:#1a5696;fill-rule:evenodd" /><path
     d="m 20.645,49.637 c 0.393,0.027 0.964,-0.078 1.126,0.119 -0.134,0.255 -1.086,0.176 -1.126,-0.119"
     id="path4881"
     inkscape:connector-curvature="0"
     style="clip-rule:evenodd;fill:#1a5696;fill-rule:evenodd" /><path
     d="m 21.558,50.237 c 0.389,-0.037 0.594,0.063 0.536,0.358 -0.301,0.023 -0.308,-0.17 -0.536,-0.2 -0.09,-0.079 0.003,-0.051 0,-0.158"
     id="path4883"
     inkscape:connector-curvature="0"
     style="clip-rule:evenodd;fill:#1a5696;fill-rule:evenodd" /><path
     d="m 25.74,50.634 0,0.359 c -0.185,0.155 -0.627,0.117 -1.02,0.119 -0.156,-0.168 -0.443,-0.43 -0.268,-0.718 0.409,-0.031 0.89,0.144 1.288,0.24"
     id="path4885"
     inkscape:connector-curvature="0"
     style="clip-rule:evenodd;fill:#1a5696;fill-rule:evenodd" /><path
     d="m 22.684,50.595 c 0.577,0.002 0.975,0.498 0.751,0.837 -0.642,0.03 -0.773,-0.504 -0.751,-0.837"
     id="path4887"
     inkscape:connector-curvature="0"
     style="clip-rule:evenodd;fill:#1a5696;fill-rule:evenodd" /><path
     d="m 24.775,51.591 c 0.148,0.017 0.053,-0.149 0.162,-0.159 0.447,-0.044 0.674,0.378 0.428,0.598 -0.232,0.013 -0.355,-0.055 -0.428,-0.159 -0.109,0.011 -0.014,0.177 -0.162,0.159 -0.25,0.022 -0.385,-0.191 -0.27,-0.318 -0.36,-0.249 -0.785,-0.452 -0.855,-0.917 0.678,-0.117 0.867,0.467 1.125,0.796"
     id="path4889"
     inkscape:connector-curvature="0"
     style="clip-rule:evenodd;fill:#1a5696;fill-rule:evenodd" /><path
     d="m 23.65,52.828 -0.108,0 c -0.138,-0.132 0.017,-0.313 0.215,-0.319 0.199,0.111 -0.017,0.209 -0.107,0.319"
     id="path4891"
     inkscape:connector-curvature="0"
     style="clip-rule:evenodd;fill:#1a5696;fill-rule:evenodd" /><path
     d="m 12.742,44.68 c -0.201,0 -0.404,-0.047 -0.595,-0.146 C 5.272,40.948 1,33.905 1,26.155 1,16.719 7.37,8.474 16.492,6.102 17.177,5.918 17.881,6.334 18.06,7.023 18.239,7.711 17.826,8.414 17.139,8.592 9.152,10.668 3.573,17.891 3.573,26.155 c 0,6.788 3.742,12.956 9.764,16.099 0.631,0.328 0.875,1.105 0.546,1.735 -0.229,0.439 -0.677,0.691 -1.141,0.691"
     id="path4893"
     inkscape:connector-curvature="0"
     style="fill:#a6c6e9" /><path
     d="m 28.627,45.611 c -0.52,0 -1.008,-0.317 -1.203,-0.83 -0.252,-0.664 0.081,-1.408 0.745,-1.66 6.996,-2.661 11.696,-9.479 11.696,-16.966 0,-6.89 -3.823,-13.1 -9.979,-16.208 C 29.252,9.627 28.998,8.853 29.318,8.218 29.64,7.584 30.414,7.33 31.047,7.65 c 7.025,3.549 11.391,10.64 11.391,18.505 0,8.549 -5.367,16.332 -13.353,19.371 -0.151,0.057 -0.306,0.085 -0.458,0.085"
     id="path4895"
     inkscape:connector-curvature="0"
     style="fill:#a6c6e9" /></svg>